<svg xmlns="http://www.w3.org/2000/svg" width="100" height="36" viewBox="0 0 100 36">
    <defs>
        <filter id="prefix__a" width="100%" height="100%" x="0%" y="0%" filterUnits="objectBoundingBox">
            <feGaussianBlur in="SourceGraphic"/>
        </filter>
    </defs>
    <path fill-rule="evenodd" d="M11.833 34.986c-2.926-.117-5.32-.917-7.192-2.404-.357-.284-1.209-1.136-1.494-1.495-.76-.955-1.275-1.884-1.62-2.914C.468 25 1.013 20.837 3.087 16.268 4.862 12.356 7.6 8.476 12.38 3.103 13.084 2.313 15.18 0 15.194 0c.005 0-.11.198-.253.439-1.243 2.081-2.306 4.533-2.885 6.655-.93 3.406-.818 6.328.328 8.595.792 1.561 2.148 2.913 3.673 3.66 2.67 1.31 6.58 1.417 11.353.318.33-.077 16.616-4.4 36.194-9.608C83.182 4.849 99.204.59 99.206.595c.005.004-45.485 19.47-69.1 29.569-3.74 1.598-4.74 2.002-6.498 2.62-4.495 1.578-8.52 2.331-11.775 2.202" filter="url(#prefix__a)"/>
</svg>
