<svg xmlns="http://www.w3.org/2000/svg" width="75" height="88" viewBox="0 0 75 88">
    <defs>
        <filter id="yvljvjg5xa" width="100%" height="100%" x="0%" y="0%" filterUnits="objectBoundingBox">
            <feGaussianBlur in="SourceGraphic"/>
        </filter>
    </defs>
    <g fill="none" fill-rule="evenodd">
        <g>
            <g>
                <g fill="#000" fill-rule="nonzero">
                    <path d="M1.367 10V2.7h.027L3.235 10h1.576V0H3.444v5.986h-.027L1.924 0H0v10h1.367zm13.592 0V0h-1.534v10h1.534zm10.148 0V6.814l.613-1.271L27.017 10h1.604l-1.855-6.329L28.593 0h-1.534l-1.952 4.214V0h-1.534v10h1.534zM41 10V8.571h-2.65V5.5h2.106V4.071H38.35V1.43H41V0h-4.183v10H41zM2.239 24c.746 0 1.315-.213 1.706-.639.392-.426.588-1.037.588-1.833 0-.611-.12-1.144-.36-1.597-.24-.454-.677-.959-1.312-1.514-.498-.436-.841-.806-1.03-1.111-.189-.306-.283-.635-.283-.987 0-.62.253-.93.76-.93.249 0 .437.076.566.23.13.152.194.395.194.728v.5h1.437v-.403c0-.787-.186-1.39-.56-1.812C3.572 14.21 3.022 14 2.294 14c-.737 0-1.299.21-1.686.632-.387.421-.58 1.016-.58 1.785 0 .564.124 1.071.373 1.52.249.45.686.952 1.313 1.507.497.436.838.808 1.022 1.119.184.31.277.668.277 1.076 0 .342-.067.59-.2.743-.134.153-.33.23-.588.23-.525 0-.788-.316-.788-.945V21H0v.556c0 .787.189 1.39.567 1.812.377.421.935.632 1.672.632zm8.633-.139v-3.958h.718c.756 0 1.323-.204 1.7-.611.378-.408.567-1.005.567-1.792v-.958c0-.787-.189-1.385-.567-1.792-.377-.407-.944-.611-1.7-.611H9.352v9.722h1.52zm.718-5.347h-.718v-2.986h.718c.25 0 .436.07.56.208.125.139.187.375.187.708v1.153c0 .334-.062.57-.187.709-.124.138-.31.208-.56.208zm7.57 5.347l.276-1.903h1.727v-.027l.277 1.93h1.52l-1.576-9.722h-2.059L17.75 23.86h1.41zm1.824-3.222h-1.368l.663-4.806h.028l.677 4.806zM29.755 24c.728 0 1.283-.208 1.665-.625.383-.417.574-1.005.574-1.764v-1.375h-1.437v1.486c0 .593-.254.89-.76.89-.507 0-.76-.297-.76-.89v-5.43c0-.602.253-.903.76-.903.506 0 .76.3.76.903v1.125h1.437v-1.028c0-.76-.191-1.347-.574-1.764-.382-.417-.937-.625-1.665-.625s-1.283.208-1.665.625c-.383.417-.574 1.005-.574 1.764v5.222c0 .76.191 1.347.574 1.764.382.417.937.625 1.665.625zM41 23.861v-1.389h-2.626v-2.986h2.087v-1.389h-2.087v-2.57H41V14.14h-4.146v9.722H41z" transform="translate(-30 -55) translate(30 55) translate(17 41)"/>
                </g>
                <g>
                    <path fill="#000" d="M3.57 11.146c-.924-.037-1.68-.289-2.27-.756-.114-.09-.382-.357-.472-.47-.24-.3-.403-.592-.512-.916C-.018 8.007.154 6.7.81 5.263c.56-1.23 1.425-2.45 2.933-4.138.222-.248.884-.975.889-.975l-.08.138c-.393.654-.728 1.425-.911 2.092-.294 1.07-.258 1.988.104 2.7.25.491.678.916 1.16 1.151.842.412 2.076.446 3.583.1.104-.024 5.245-1.383 11.425-3.02C26.092 1.674 31.149.336 31.15.337c.002.001-14.358 6.12-21.812 9.293-1.18.502-1.497.63-2.052.823-1.418.496-2.69.733-3.716.693" filter="url(#yvljvjg5xa)" transform="translate(-30 -55) translate(30 55) translate(21.85 21.85)"/>
                </g>
                <path fill="#000" fill-rule="nonzero" d="M75 19.037L37.5 0 0 19.037v48.926L37.5 87 75 67.963V19.037zm-37.5-16.8L73 20.26v46.48L37.5 84.762 2 66.74V20.26L37.5 2.237z" transform="translate(-30 -55) translate(30 55)"/>
            </g>
        </g>
    </g>
</svg>
