<svg xmlns="http://www.w3.org/2000/svg" width="30" height="20" viewBox="0 0 30 20">
    <g fill="none" fill-rule="evenodd">
        <path fill="#FA5400" fill-rule="nonzero" d="M19.792 4c-1.772 0-3.209 1.436-3.209 3.208l.007.2c.049.795.39 1.525.931 2.067l.08.075-.144.071c-1.779.928-2.957 2.787-2.957 4.879 0 .276.224.5.5.5h10c.28 0 .506-.23.5-.511l-.005-.232-.016-.234c-.178-2.024-1.447-3.75-3.242-4.548l-.124-.053.121-.133c.484-.568.766-1.3.766-2.08C23 5.435 21.564 4 19.792 4zm0 1C21.012 5 22 5.989 22 7.208c0 .832-.463 1.581-1.188 1.96-.415.216-.33.834.128.932l.204.048c1.75.457 3.062 1.932 3.313 3.724l.014.128h-8.943l.018-.145c.254-1.76 1.532-3.223 3.264-3.696.453-.124.501-.746.074-.938-.785-.354-1.3-1.136-1.3-2.013 0-1.22.988-2.208 2.208-2.208z"/>
        <path fill="#CCC" d="M6 6v5h5v1H5V6h1z"/>
    </g>
</svg>
