<svg xmlns="http://www.w3.org/2000/svg" width="20" height="20" viewBox="0 0 20 20">
    <g fill="none">
        <path fill="#EEE" d="M16 .5H2C1.172.5.5 1.172.5 2v14c0 .828.672 1.5 1.5 1.5h14c.828 0 1.5-.672 1.5-1.5V2c0-.828-.672-1.5-1.5-1.5z" transform="translate(1 1)"/>
        <path fill="#CCC" d="M16 .5H2C1.172.5.5 1.172.5 2v14c0 .828.672 1.5 1.5 1.5h14c.828 0 1.5-.672 1.5-1.5V2c0-.828-.672-1.5-1.5-1.5zm-14 1h14c.276 0 .5.224.5.5v14c0 .276-.224.5-.5.5H2c-.276 0-.5-.224-.5-.5V2c0-.276.224-.5.5-.5z" transform="translate(1 1)"/>
    </g>
</svg>
