<svg xmlns="http://www.w3.org/2000/svg" width="20" height="20" viewBox="0 0 20 20">
    <g>
        <path d="M4.167-.75C5.49-.75 6.574.28 6.659 1.583l.005.164h-1.5c0-.511-.385-.933-.881-.99L4.167.75h-2.42c-.55 0-.997.447-.997.997 0 .512.385.933.881.99l.116.008h1.344v1.5H1.747C.368 4.245-.75 3.127-.75 1.747-.75.423.28-.66 1.583-.745l.164-.005h2.42z" transform="scale(-1 1) rotate(45 -12.071 -12.071)"/>
        <path d="M5.833 4.245c-1.324 0-2.407-1.03-2.492-2.333l-.005-.165h1.5c0 .512.385.933.881.99l.116.008h2.42c.55 0 .997-.447.997-.998 0-.511-.385-.933-.881-.99L8.253.75H6.909v-1.5h1.344c1.379 0 2.497 1.118 2.497 2.497 0 1.324-1.03 2.408-2.333 2.492l-.164.006h-2.42z" transform="scale(-1 1) rotate(45 -12.071 -12.071)"/>
    </g>
</svg>
