<svg xmlns="http://www.w3.org/2000/svg" width="24" height="24" viewBox="0 0 24 24">
    <g fill-rule="evenodd">
        <g fill-rule="nonzero">
            <path d="M3.65.25c.544 0 1.02.35 1.188.859l.033.12 2.65 11.924h11.016v1.5H7.32c-.544 0-1.02-.35-1.187-.859l-.033-.12L3.45 1.75H0V.25h3.65z" transform="translate(1 3)"/>
            <path d="M20.032 2.64c.69 0 1.25.56 1.25 1.25 0 .067-.005.133-.016.199l-.02.098L19.9 9.702c-.113.463-.478.817-.936.922l-.127.022-12.23 1.488-.182-1.489 12.058-1.468 1.231-5.038H4.971v-1.5h15.061zM8.28 16.25c-.788 0-1.427.639-1.427 1.426 0 .788.639 1.427 1.427 1.427.787 0 1.426-.639 1.426-1.427 0-.787-.639-1.426-1.426-1.426zM16.515 16.25c-.788 0-1.427.639-1.427 1.426 0 .788.639 1.427 1.427 1.427s1.426-.639 1.426-1.427c0-.787-.638-1.426-1.426-1.426z" transform="translate(1 3)"/>
        </g>
        <path d="M5.5 6.5L7.423 14.592 20.109 13 21.578 6.5z"/>
    </g>
</svg>
