<svg xmlns="http://www.w3.org/2000/svg" width="20" height="20" viewBox="0 0 20 20">
    <path fill="#888" d="M7.745 4H5.559c-.922 0-1.642.763-1.552 1.652C4.6 11.638 9.362 16.4 15.35 16.992c.887.09 1.65-.629 1.65-1.55v-2.187c0-.695-.445-1.311-1.105-1.53l-2.124-.71c-.581-.192-1.22-.041-1.652.39l-.34.341c-.075.076-.19.087-.274.03-1.061-.725-1.645-1.307-2.292-2.28-.054-.081-.041-.193.033-.267l.348-.348c.433-.433.583-1.073.39-1.653l-.708-2.124C9.056 4.444 8.44 4 7.745 4zm0 1c.23 0 .44.13.544.33l.038.09.708 2.125c.063.19.03.395-.084.553l-.064.076-.348.347c-.4.4-.485 1.037-.159 1.528.722 1.086 1.398 1.758 2.56 2.553.453.31 1.04.267 1.448-.06l.098-.089.34-.34c.142-.141.34-.203.533-.172l.096.023 2.125.71c.22.072.376.261.412.484l.008.097v2.186c0 .358-.279.584-.552.557-5.513-.546-9.9-4.933-10.446-10.446-.025-.246.156-.496.454-.544L5.559 5h2.186z"/>
</svg>
