<svg xmlns="http://www.w3.org/2000/svg" width="20" height="20" viewBox="0 0 20 20">
    <path fill="#DDD" fill-rule="evenodd" d="M5 14c.552 0 1 .448 1 1v2c0 .552-.448 1-1 1H3c-.552 0-1-.448-1-1v-2c0-.552.448-1 1-1h2zm12 0c.552 0 1 .448 1 1v2c0 .552-.448 1-1 1H9c-.552 0-1-.448-1-1v-2c0-.552.448-1 1-1h8zM5 8c.552 0 1 .448 1 1v2c0 .552-.448 1-1 1H3c-.552 0-1-.448-1-1V9c0-.552.448-1 1-1h2zm12 0c.552 0 1 .448 1 1v2c0 .552-.448 1-1 1H9c-.552 0-1-.448-1-1V9c0-.552.448-1 1-1h8zM5 2c.552 0 1 .448 1 1v2c0 .552-.448 1-1 1H3c-.552 0-1-.448-1-1V3c0-.552.448-1 1-1h2zm12 0c.552 0 1 .448 1 1v2c0 .552-.448 1-1 1H9c-.552 0-1-.448-1-1V3c0-.552.448-1 1-1h8z"/>
</svg>
