<svg xmlns="http://www.w3.org/2000/svg" width="20" height="20" viewBox="0 0 20 20">
    <g fill="none" fill-rule="evenodd" transform="translate(3.5 1.36)">
        <g fill="#000" fill-rule="nonzero">
            <path d="M4.5 11.5c0 .828.672 1.5 1.5 1.5.78 0 1.42-.595 1.493-1.356L7.5 11.5h1C8.5 12.88 7.38 14 6 14c-1.325 0-2.41-1.032-2.495-2.336L3.5 11.5h1zM12 9.679L12 10.679 0 10.679 0 9.679z" transform="translate(.5 2.64)"/>
            <path d="M6-.5c2.687 0 4.882 2.097 4.995 4.73l.005.214V10c0 .276-.224.5-.5.5-.245 0-.45-.177-.492-.41L10 10V4.444C10 2.267 8.21.5 6 .5 3.856.5 2.109 2.162 2.005 4.248L2 4.444V10c0 .276-.224.5-.5.5-.245 0-.45-.177-.492-.41L1 10V4.444C1 1.712 3.24-.5 6-.5z" transform="translate(.5 2.64)"/>
        </g>
        <rect width="3" height="3" x="12.5" y=".64" fill="#F36910" rx="1.5"/>
    </g>
</svg>
