<svg xmlns="http://www.w3.org/2000/svg" width="20" height="20" viewBox="0 0 20 20">
    <g fill="#FFF">
        <path d="M5.167.25c1.324 0 2.407 1.03 2.492 2.333l.005.164h-1.5c0-.511-.385-.933-.881-.99l-.116-.007h-2.42c-.55 0-.997.447-.997.997 0 .512.385.933.881.99l.116.008h1.344v1.5H2.747C1.368 5.245.25 4.127.25 2.747.25 1.423 1.28.34 2.583.255L2.747.25h2.42z" transform="scale(-1 1) rotate(45 -10.364 -12.778)"/>
        <path d="M6.833 5.245c-1.324 0-2.407-1.03-2.492-2.333l-.005-.165h1.5c0 .512.385.933.881.99l.116.008h2.42c.55 0 .997-.447.997-.998 0-.511-.385-.933-.881-.99l-.116-.007H7.909V.25h1.344c1.379 0 2.497 1.118 2.497 2.497 0 1.324-1.03 2.408-2.333 2.492l-.164.006h-2.42z" transform="scale(-1 1) rotate(45 -10.364 -12.778)"/>
    </g>
</svg>
