<svg xmlns="http://www.w3.org/2000/svg" width="14" height="14" viewBox="0 0 14 14">
    <g fill="#888">
        <path d="M1.914.5c.43 0 .806.274.945.672l.031.111 1.465 6.59h6.238v1H4.355c-.43 0-.806-.273-.945-.671L3.38 8.09 1.914 1.5H0v-1h1.914z" transform="translate(1 2)"/>
        <path d="M11.174 1.866c.552 0 1 .447 1 1l-.007.12-.021.117-.67 2.742c-.09.364-.373.644-.73.733l-.121.023-6.842.832-.12-.992 6.841-.833.67-2.742H2.84v-1h8.334zM4.731 9.707c-.454 0-.822.368-.822.822 0 .455.368.823.822.823.454 0 .822-.368.822-.823 0-.454-.368-.822-.822-.822zM9.437 9.707c-.454 0-.822.368-.822.822 0 .455.368.823.822.823.454 0 .822-.368.822-.823 0-.454-.368-.822-.822-.822z" transform="translate(1 2)"/>
    </g>
</svg>
