<svg xmlns="http://www.w3.org/2000/svg" width="50" height="50" viewBox="0 0 50 50">
    <g fill="none" fill-rule="evenodd">
        <path fill="#FFF" d="M27 19L35 32 19 32z" transform="rotate(90 27 25.5)"/>
        <path stroke="#FFF" stroke-width="2" d="M25 1c6.627 0 12.627 2.686 16.97 7.03C46.315 12.372 49 18.372 49 25c0 6.627-2.686 12.627-7.03 16.97C37.628 46.315 31.628 49 25 49c-6.627 0-12.627-2.686-16.97-7.03C3.685 37.628 1 31.628 1 25c0-6.627 2.686-12.627 7.03-16.97C12.372 3.685 18.372 1 25 1zm-5.412 14.843v18.314L34.24 25l-14.652-9.157z"/>
    </g>
</svg>
