<svg xmlns="http://www.w3.org/2000/svg" width="20" height="20" viewBox="0 0 20 20">
    <g fill="#FA5400">
        <path d="M7.508-.5c.286 0 .556.122.746.334l.077.096L9.4 1.491h4.618l-.001.006.1.007c.458.053.823.416.876.874l.007.117v7.007c0 .512-.386.934-.883.991L14 10.5h-1.104v-1H14V2.491H8.875L7.508.5H2.5v1.692h-1V.498c0-.512.386-.934.883-.991L2.5-.5h5.008z" transform="translate(3.5 4)"/>
        <path d="M5.508 1.5H.5c-.552 0-1 .448-1 1v9c0 .552.448 1 1 1H12c.552 0 1-.448 1-1V4.464l-.007-.116c-.057-.498-.48-.884-.993-.884H7.401L6.328 1.928c-.187-.268-.493-.428-.82-.428zM.5 2.5h5.008L6.88 4.464H12V11.5H.5v-9z" transform="translate(3.5 4)"/>
    </g>
</svg>
