<svg xmlns="http://www.w3.org/2000/svg" width="20" height="20" viewBox="0 0 20 20">
    <path fill="none" fill-rule="evenodd" stroke="#888" d="M7.727 4.5c.246-.004.48.073.67.21.184.134.329.325.404.552h0l.708 2.125c.067.2.075.41.028.608s-.147.383-.296.532c.24 2.274.881 2.91 1.982 3.662 1.4-.579 1.584-.68 1.781-.726.198-.047.408-.04.609.027h0l2.125.709c.227.075.418.22.552.405.133.185.21.412.21.651h0v2.186c0 .32-.126.581-.306.763-.214.216-.508.32-.795.291-2.875-.284-5.456-1.57-7.39-3.504-1.934-1.934-3.22-4.515-3.504-7.389-.036-.354.13-.718.458-.93h0z"/>
</svg>
