<svg xmlns="http://www.w3.org/2000/svg" width="40" height="40" viewBox="0 0 40 40">
    <g fill="none" fill-rule="evenodd" stroke="#FFF" stroke-linecap="round" stroke-width="1.5">
        <path d="M10.549 14.462C9.106 15.515 7.256 17.208 5 19.538c4.477 5.385 9.477 8.077 15 8.077.912 0 1.81-.073 2.693-.22m4.757-1.766c1.39-.84 3.906-2.87 7.55-6.09-4.477-5.385-9.477-8.077-15-8.077-1.909 0-3.755.321-5.539.964"/>
        <path d="M16.006 18.94c-.03.196-.044.395-.044.598 0 2.23 1.808 4.039 4.038 4.039.249 0 .492-.023.729-.066m2.794-1.996c.328-.584.515-1.259.515-1.977 0-2.23-1.808-4.038-4.038-4.038-.752 0-1.457.206-2.06.564"/>
        <path d="M0 0L22.845 22.845" transform="translate(9.615 8)"/>
    </g>
</svg>
