<svg xmlns="http://www.w3.org/2000/svg" width="30" height="30" viewBox="0 0 30 30">
    <g fill="none" fill-rule="evenodd" stroke="#FFF" stroke-linecap="round" stroke-width="1.5">
        <path d="M7.912 10.846c-1.083.79-2.47 2.06-4.162 3.808 3.358 4.038 7.108 6.058 11.25 6.058.684 0 1.357-.056 2.02-.166m3.567-1.324c1.042-.63 2.93-2.153 5.663-4.568-3.358-4.039-7.108-6.058-11.25-6.058-1.432 0-2.816.241-4.154.724"/>
        <path d="M12.004 14.205c-.022.147-.033.296-.033.449 0 1.673 1.356 3.029 3.029 3.029.187 0 .37-.017.547-.05m2.095-1.497c.246-.438.387-.944.387-1.482 0-1.673-1.356-3.029-3.029-3.029-.564 0-1.093.154-1.545.423"/>
        <path d="M0 0L17.134 17.134" transform="translate(7.212 6)"/>
    </g>
</svg>
