<svg xmlns="http://www.w3.org/2000/svg" width="160" height="160" viewBox="0 0 160 160">
    <g fill="none" fill-rule="evenodd" transform="translate(25 34)">
        <rect width="86" height="66" x="12" y="17" fill="#F7F7F7" stroke="#BBB" stroke-width="4" rx="4"/>
        <path fill="#AAA" d="M0 82c0-.552.448-1 1-1h108c.552 0 1 .448 1 1v2.333L100 86H10L0 84.333V82z"/>
        <path fill="#FFF" d="M70 81c0 .828-.672 1.5-1.5 1.5h-27c-.828 0-1.5-.672-1.5-1.5" opacity=".5"/>
        <path fill="#BBB" d="M23 52H63V53H23zM23 56H63V57H23zM23 60H43V61H23z"/>
        <path fill="#888" d="M30.794 39.495c-1.707.455-3.084.394-3.862-.18-2.013-1.463-.471-4.415.068-5.302-.98 1.08-1.96 2.159-2.724 3.334-1.198 1.84-1.711 3.859-.902 5.148 1.457 2.345 4.95 1.265 7.17.331l20.663-8.703-20.413 5.372z"/>
        <g transform="translate(69.542)">
            <circle cx="21.939" cy="21.939" r="18.939" fill="#FFF" stroke="#888" stroke-width="4" transform="rotate(.5 21.939 21.939)"/>
            <path fill="#555" d="M21.888 27.755c.964.008 1.738.796 1.73 1.76-.009.964-.797 1.738-1.76 1.73-.964-.009-1.738-.797-1.73-1.76.008-.964.796-1.739 1.76-1.73zm.143-15.122c1.233.01 2.366.98 2.318 2.194l-.012.153-1.255 10.459c-.083.621-.54 1.158-1.173 1.153-.6-.005-1.025-.463-1.134-1.047l-.019-.127-1.072-10.479-.009-.153c-.022-1.214 1.122-2.164 2.356-2.153z"/>
            <path stroke="#888" stroke-linecap="round" stroke-width="4" d="M34.457 37L47.185 49.728"/>
        </g>
    </g>
</svg>
