<svg xmlns="http://www.w3.org/2000/svg" width="120" height="120" viewBox="0 0 120 120">
    <g fill="none" fill-rule="evenodd" transform="translate(33 23)">
        <rect width="54" height="72" y="1" fill="#AAA" rx="2"/>
        <path fill="#F7F7F7" d="M4 4h38.572c.273 0 .535.112.723.31l7.428 7.775c.178.186.277.434.277.69V69c0 .552-.448 1-1 1H4c-.552 0-1-.448-1-1V5c0-.552.448-1 1-1z"/>
        <path fill="#888" stroke="#888" d="M27.287 14.512l1.992 3.167 4.167.83-2.716 2.788.5 4.243-3.49-1.722-3.88 1.787.558-3.851-2.898-3.14 3.835-.658 1.932-3.444z"/>
        <g fill="#BBB">
            <path d="M0 0H35.402V1H0zM0 3.218H24.138V4.218H0zM0 6.437H16.092V7.437H0zM0 9.655H14.483V10.655H0z" transform="translate(9 32)"/>
        </g>
        <path fill="#888" d="M43 4l8 8h-7c-.552 0-1-.448-1-1V4z"/>
        <g transform="translate(44 62)">
            <circle cx="8" cy="8" r="8" fill="#FFF" stroke="#888" stroke-width="3"/>
            <path fill="#888" d="M7 0L10 0 10 16 7 16z" transform="rotate(45 8.5 8)"/>
        </g>
        <path stroke="#888" stroke-linecap="round" stroke-linejoin="round" stroke-width="2" d="M39 0L39 6 16 6 16 0"/>
    </g>
</svg>
