<svg xmlns="http://www.w3.org/2000/svg" width="120" height="120" viewBox="0 0 120 120">
    <g fill="none" fill-rule="evenodd">
        <path stroke="#EEE" stroke-width="2.5" d="M41.5 9L41.5 69M25 39.5L41.5 39.5M41 10.5L57.5 10.5M41 67.5L57.5 67.5M41 39.5L57.5 39.5" transform="translate(20 21)"/>
        <g>
            <path fill="#AAA" d="M2 0h26c1.105 0 2 .895 2 2v22H0V2C0 .895.895 0 2 0z" transform="translate(20 21) translate(0 27)"/>
            <path fill="#888" d="M6.52 5.455h11.183l3.118 2.004h12.742c.552 0 1 .448 1 1 0 .098-.014.196-.042.29L29.922 24H0L4.589 6.935c.235-.873 1.027-1.48 1.931-1.48z" transform="translate(20 21) translate(0 27)"/>
            <path fill="#FFF" d="M16.25 14.964c-.613.163-1.11.142-1.39-.065-.724-.527-.17-1.59.025-1.909-.353.389-.706.777-.98 1.2-.432.663-.616 1.39-.325 1.854.524.844 1.782.455 2.58.119l7.44-3.133-7.35 1.934z" transform="translate(20 21) translate(0 27)"/>
        </g>
        <g>
            <path fill="#888" d="M2 0h18.5c1.105 0 2 .895 2 2v16H0V2C0 .895.895 0 2 0z" transform="translate(20 21) translate(54)"/>
            <path fill="#DDD" d="M5.273 4.09h8.005l2.338 1.505h9.22c.552 0 1 .447 1 1 0 .097-.014.195-.043.288L22.442 18H0L3.342 5.572C3.577 4.698 4.37 4.09 5.273 4.09z" transform="translate(20 21) translate(54)"/>
            <path fill="#888" d="M12.188 11.223c-.46.123-.832.106-1.043-.049-.543-.395-.127-1.192.019-1.431-.265.291-.53.583-.736.9-.323.496-.462 1.042-.243 1.39.393.633 1.336.341 1.936.09l5.579-2.35-5.512 1.45z" transform="translate(20 21) translate(54)"/>
        </g>
        <g>
            <path fill="#888" d="M2 0h18.5c1.105 0 2 .895 2 2v16H0V2C0 .895.895 0 2 0z" transform="translate(20 21) translate(54 30)"/>
            <path fill="#DDD" d="M5.273 4.09h8.005l2.338 1.505h9.22c.552 0 1 .447 1 1 0 .097-.014.195-.043.288L22.442 18H0L3.342 5.572C3.577 4.698 4.37 4.09 5.273 4.09z" transform="translate(20 21) translate(54 30)"/>
            <path fill="#888" d="M12.188 11.223c-.46.123-.832.106-1.043-.049-.543-.395-.127-1.192.019-1.431-.265.291-.53.583-.736.9-.323.496-.462 1.042-.243 1.39.393.633 1.336.341 1.936.09l5.579-2.35-5.512 1.45z" transform="translate(20 21) translate(54 30)"/>
        </g>
        <g>
            <path fill="#888" d="M2 0h18.5c1.105 0 2 .895 2 2v16H0V2C0 .895.895 0 2 0z" transform="translate(20 21) translate(54 60)"/>
            <path fill="#DDD" d="M5.273 4.09h8.005l2.338 1.505h9.22c.552 0 1 .447 1 1 0 .097-.014.195-.043.288L22.442 18H0L3.342 5.572C3.577 4.698 4.37 4.09 5.273 4.09z" transform="translate(20 21) translate(54 60)"/>
            <path fill="#888" d="M12.188 11.223c-.46.123-.832.106-1.043-.049-.543-.395-.127-1.192.019-1.431-.265.291-.53.583-.736.9-.323.496-.462 1.042-.243 1.39.393.633 1.336.341 1.936.09l5.579-2.35-5.512 1.45z" transform="translate(20 21) translate(54 60)"/>
        </g>
    </g>
</svg>
