<svg xmlns="http://www.w3.org/2000/svg" width="120" height="120" viewBox="0 0 120 120">
    <g fill="none" fill-rule="evenodd" transform="translate(28 24)">
        <path fill="#AAA" d="M1 6h46c.552 0 1 .448 1 1v65c0 .552-.448 1-1 1H1c-.552 0-1-.448-1-1V7c0-.552.448-1 1-1z"/>
        <rect width="48" height="67" x="6" fill="#CCC" rx="1"/>
        <path fill="#F7F7F7" d="M4 3h38.572c.273 0 .535.112.723.31l7.428 7.775c.178.186.277.434.277.69V69c0 .552-.448 1-1 1H4c-.552 0-1-.448-1-1V4c0-.552.448-1 1-1z"/>
        <g>
            <g fill="#BBB">
                <path d="M0 0H35.402V1H0zM0 3.218H24.138V4.218H0zM0 6.437H16.092V7.437H0zM0 9.655H14.483V10.655H0z" transform="translate(8.655 14.678) translate(0 12.069)"/>
            </g>
            <path fill="#888" d="M5.506 4.12c-1.03.273-1.86.237-2.33-.109-1.214-.883-.284-2.664.041-3.199-.59.651-1.182 1.303-1.643 2.012C.852 3.933.542 5.15 1.03 5.929c.88 1.414 2.986.763 4.325.2L17.819.879 5.506 4.119z" transform="translate(8.655 14.678)"/>
        </g>
        <path fill="#AAA" d="M43 3l8 8h-7c-.552 0-1-.448-1-1V3z"/>
        <g transform="translate(34.38 34.575)">
            <circle cx="17.847" cy="17.847" r="15.347" fill="#FFF" stroke="#888" stroke-width="3" transform="rotate(.5 17.847 17.847)"/>
            <path fill="#555" d="M17.78 22.167c.776.007 1.399.64 1.392 1.416-.006.776-.64 1.399-1.416 1.392-.775-.007-1.398-.641-1.392-1.416.007-.776.641-1.399 1.417-1.392zM17.897 10c.986.009 1.893.78 1.865 1.749l-.01.14-1.01 8.414c-.067.501-.434.933-.943.928-.478-.004-.818-.364-.91-.826l-.018-.118-.863-8.431-.007-.14c-.007-.969.909-1.725 1.896-1.716z"/>
            <path stroke="#888" stroke-linecap="round" stroke-width="3" d="M27.724 29.77L34.795 36.841"/>
        </g>
    </g>
</svg>
