<?xml version="1.0" encoding="UTF-8"?>
<svg width="160px" height="160px" viewBox="0 0 160 160" version="1.1" xmlns="http://www.w3.org/2000/svg" xmlns:xlink="http://www.w3.org/1999/xlink">
    <title>09.일러스트/세션연장(Outline)</title>
    <defs>
        <path d="M4,4.5 L10,4.5 C10.8284271,4.5 11.5,5.17157288 11.5,6 C11.5,6.82842712 10.8284271,7.5 10,7.5 L4,7.5 C3.17157288,7.5 2.5,6.82842712 2.5,6 C2.5,5.17157288 3.17157288,4.5 4,4.5 Z" id="path-1"></path>
    </defs>
    <g id="09.일러스트/세션연장(Outline)" stroke="none" stroke-width="1" fill="none" fill-rule="evenodd">
        <g id="Group-22" transform="translate(32.000000, 34.000000)">
            <circle id="Oval" fill="#F7F7F7" cx="48.5" cy="48.5" r="37.5"></circle>
            <path d="M62.7077431,66.3550882 C64.1163181,65.1343232 66.2220005,65.237537 67.5057344,66.5562257 L67.6449118,66.7077431 L80.6449118,81.7077431 C81.9108903,83.1684876 81.7530013,85.3789333 80.2922569,86.6449118 C78.8836819,87.8656768 76.7779995,87.762463 75.4942656,86.4437743 L75.3550882,86.2922569 L62.3550882,71.2922569 C61.0891097,69.8315124 61.2469987,67.6210667 62.7077431,66.3550882 Z" id="Path-2" fill="#CCCCCC" fill-rule="nonzero"></path>
            <path d="M15.7077431,66.3550882 C17.1163181,65.1343232 19.2220005,65.237537 20.5057344,66.5562257 L20.6449118,66.7077431 L33.6449118,81.7077431 C34.9108903,83.1684876 34.7530013,85.3789333 33.2922569,86.6449118 C31.8836819,87.8656768 29.7779995,87.762463 28.4942656,86.4437743 L28.3550882,86.2922569 L15.3550882,71.2922569 C14.0891097,69.8315124 14.2469987,67.6210667 15.7077431,66.3550882 Z" id="Path-2-Copy" fill="#CCCCCC" fill-rule="nonzero" transform="translate(24.500000, 76.500000) scale(-1, 1) translate(-24.500000, -76.500000) "></path>
            <g id="Group-3" transform="translate(41.000000, 1.000000)">
                <mask id="mask-2" fill="white">
                    <use xlink:href="#path-1"></use>
                </mask>
                <use id="Rectangle-Copy-3" fill="#CCCCCC" transform="translate(7.000000, 6.000000) rotate(-270.000000) translate(-7.000000, -6.000000) " xlink:href="#path-1"></use>
                <rect id="Rectangle" fill="#AAAAAA" x="0" y="0" width="14" height="5.5" rx="2.75"></rect>
            </g>
            <g id="Group-Copy" transform="translate(15.704416, 15.561628) scale(-1, 1) rotate(-320.000000) translate(-15.704416, -15.561628) translate(5.204416, 4.561628)"></g>
            <g id="Group-4" transform="translate(16.495689, 16.495689) rotate(-45.000000) translate(-16.495689, -16.495689) translate(6.495689, 5.995689)">
                <rect id="Rectangle" fill="#CCCCCC" x="8.5" y="6" width="3" height="15" rx="1.5"></rect>
                <rect id="Rectangle" fill="#CCCCCC" x="7.5" y="0" width="5" height="7" rx="2.5"></rect>
                <path d="M0.00384179753,12.7200952 C0.152068282,7.32667079 4.57076009,3 10,3 C15.5228475,3 20,7.4771525 20,13 C20,13.5522847 15.5228475,14 10,14 C4.4771525,14 0,13.5522847 0,13 L0,13 Z" id="Combined-Shape" fill="#AAAAAA"></path>
            </g>
            <g id="Group-4" transform="translate(79.495689, 16.495689) scale(-1, 1) rotate(-45.000000) translate(-79.495689, -16.495689) translate(69.495689, 5.995689)">
                <rect id="Rectangle" fill="#CCCCCC" x="8.5" y="6" width="3" height="15" rx="1.5"></rect>
                <rect id="Rectangle" fill="#CCCCCC" x="7.5" y="0" width="5" height="7" rx="2.5"></rect>
                <path d="M0.00384179753,12.7200952 C0.152068282,7.32667079 4.57076009,3 10,3 C15.5228475,3 20,7.4771525 20,13 C20,13.5522847 15.5228475,14 10,14 C4.4771525,14 0,13.5522847 0,13 L0,13 Z" id="Combined-Shape" fill="#AAAAAA"></path>
            </g>
            <path d="M48,9 C69.5391052,9 87,26.4608948 87,48 C87,69.5391052 69.5391052,87 48,87 C26.4608948,87 9,69.5391052 9,48 C9,26.4608948 26.4608948,9 48,9 Z M48,14 C29.2223185,14 14,29.2223185 14,48 C14,66.7776815 29.2223185,82 48,82 C66.7776815,82 82,66.7776815 82,48 C82,29.2223185 66.7776815,14 48,14 Z" id="Oval" fill="#AAAAAA" fill-rule="nonzero"></path>
            <path d="M47.9426798,14.0819672 C29.1966554,14.0819672 14,29.3042857 14,48.0819672 C14,66.8596487 29.1966554,82.0819672 47.9426798,82.0819672 C60.2645095,82.0819672 71.0528412,75.5051942 77,65.664909 L47.9426798,48.0819672 L47.9426798,14.0819672 Z" id="Path" fill="#FFFFFF"></path>
            <path d="M47.9373832,48.1728286 C48.133093,47.8474573 48.5366203,47.7239908 48.8759181,47.8701232 L48.966657,47.9167126 L66.1043523,58.2249809 C66.4593029,58.4384825 66.57397,58.8993041 66.3604683,59.2542547 C66.1647585,59.5796261 65.7612312,59.7030925 65.4219334,59.5569601 L65.3311945,59.5103707 L48.1934992,49.2021025 C47.8385486,48.9886008 47.7238816,48.5277792 47.9373832,48.1728286 Z" id="Path-4" fill="#CCCCCC" fill-rule="nonzero"></path>
            <path d="M48,31 C48.8284271,31 49.5,31.6715729 49.5,32.5 L49.5,48 C49.5,48.8284271 48.8284271,49.5 48,49.5 C47.1715729,49.5 46.5,48.8284271 46.5,48 L46.5,32.5 C46.5,31.6715729 47.1715729,31 48,31 Z" id="Rectangle" fill="#888888"></path>
            <path d="M48,44 C50.209139,44 52,45.790861 52,48 C52,50.209139 50.209139,52 48,52 C45.790861,52 44,50.209139 44,48 C44,45.790861 45.790861,44 48,44 Z M48,46.5 C47.1715729,46.5 46.5,47.1715729 46.5,48 C46.5,48.8284271 47.1715729,49.5 48,49.5 C48.8284271,49.5 49.5,48.8284271 49.5,48 C49.5,47.1715729 48.8284271,46.5 48,46.5 Z" id="Oval" fill="#CCCCCC" fill-rule="nonzero" transform="translate(48.000000, 48.000000) scale(-1, 1) translate(-48.000000, -48.000000) "></path>
            <path d="M48,76 C48.8284271,76 49.5,76.6715729 49.5,77.5 C49.5,78.3284271 48.8284271,79 48,79 C47.1715729,79 46.5,78.3284271 46.5,77.5 C46.5,76.6715729 47.1715729,76 48,76 Z M74.2977494,61.4509619 C75.0151883,61.8651755 75.2610011,62.7825611 74.8467875,63.5 C74.432574,64.2174389 73.5151883,64.4632517 72.7977494,64.0490381 C72.0803105,63.6348245 71.8344977,62.7174389 72.2487113,62 C72.6629249,61.2825611 73.5803105,61.0367483 74.2977494,61.4509619 Z M23.7512887,62 C24.1655023,62.7174389 23.9196895,63.6348245 23.2022506,64.0490381 C22.4848117,64.4632517 21.567426,64.2174389 21.1532125,63.5 C20.7389989,62.7825611 20.9848117,61.8651755 21.7022506,61.4509619 C22.4196895,61.0367483 23.3370751,61.2825611 23.7512887,62 Z M23.2022506,31.9509619 C23.9196895,32.3651755 24.1655023,33.2825611 23.7512887,34 C23.3370751,34.7174389 22.4196895,34.9632517 21.7022506,34.5490381 C20.9848117,34.1348245 20.7389989,33.2174389 21.1532125,32.5 C21.567426,31.7825611 22.4848117,31.5367483 23.2022506,31.9509619 Z M74.8467875,32.5 C75.2610011,33.2174389 75.0151883,34.1348245 74.2977494,34.5490381 C73.5803105,34.9632517 72.6629249,34.7174389 72.2487113,34 C71.8344977,33.2825611 72.0803105,32.3651755 72.7977494,31.9509619 C73.5151883,31.5367483 74.432574,31.7825611 74.8467875,32.5 Z M48,17 C48.8284271,17 49.5,17.6715729 49.5,18.5 C49.5,19.3284271 48.8284271,20 48,20 C47.1715729,20 46.5,19.3284271 46.5,18.5 C46.5,17.6715729 47.1715729,17 48,17 Z" id="Combined-Shape" fill="#CCCCCC"></path>
        </g>
    </g>
</svg>