<svg xmlns="http://www.w3.org/2000/svg" width="120" height="120" viewBox="0 0 120 120">
    <g fill="none" fill-rule="evenodd">
        <path fill="#888" d="M2 0h58.5c1.105 0 2 .895 2 2v48H0V2C0 .895.895 0 2 0z" transform="translate(29 42)"/>
        <path fill="#DDD" d="M11.923 11.364h24.96l6.494 4.177H71.38c.553 0 1 .447 1 1 0 .097-.014.195-.042.288L62.338 50H0l9.991-37.156c.235-.873 1.027-1.48 1.932-1.48z" transform="translate(29 42)"/>
        <path fill="#888" d="M36.546 31.588c-1.17.311-2.113.27-2.647-.123-1.38-1.003-.323-3.027.047-3.635-.672.74-1.344 1.48-1.867 2.286-.821 1.26-1.173 2.644-.618 3.528.998 1.607 3.392.867 4.914.227l14.163-5.965-13.992 3.682z" transform="translate(29 42)"/>
        <g transform="translate(29 42) translate(55 36)">
            <circle cx="8" cy="8" r="8" fill="#FFF" stroke="#888" stroke-width="3"/>
            <path fill="#888" d="M7 0L10 0 10 16 7 16z" transform="rotate(45 8.5 8)"/>
        </g>
    </g>
</svg>
