<svg xmlns="http://www.w3.org/2000/svg" width="50" height="50" viewBox="0 0 50 50">
    <g fill="none" fill-rule="evenodd" stroke-width="1.5">
        <path stroke="#CCC" d="M23 4h13.252c.552 0 1 .448 1 1v2.213" transform="translate(6 7)"/>
        <g>
            <path stroke="#000" d="M23.091 6.182L19 2.091 23.091 -2" transform="translate(6 7) translate(6 22) rotate(90 21.045 2.09)"/>
            <path stroke="#000" d="M21.045 0.045L21.045 14.591" transform="translate(6 7) translate(6 22)"/>
            <path stroke="#CCC" d="M7.545 5L0 5" transform="translate(6 7) translate(6 22)"/>
        </g>
        <path stroke="#000" d="M22.031 32H1.375c-.276 0-.5-.224-.5-.5V1.375c0-.276.224-.5.5-.5h14.84c.176 0 .34.093.43.246l5.73 9.691h14.377c.276 0 .5.224.5.5V31.5c0 .276-.224.5-.5.5h-4.72 0" transform="translate(6 7)"/>
    </g>
</svg>
