<svg xmlns="http://www.w3.org/2000/svg" width="160" height="160" viewBox="0 0 160 160">
    <g fill="none" fill-rule="evenodd" transform="translate(25 32)">
        <rect width="86" height="66" x="12" y="19" fill="#F7F7F7" stroke="#BBB" stroke-width="4" rx="4"/>
        <path fill="#AAA" d="M0 84c0-.552.448-1 1-1h108c.552 0 1 .448 1 1v2.333L100 88H10L0 86.333V84z"/>
        <path fill="#FFF" d="M70 83c0 .828-.672 1.5-1.5 1.5h-27c-.828 0-1.5-.672-1.5-1.5" opacity=".5"/>
        <path fill="#BBB" d="M23 54H63V55H23zM23 58H63V59H23zM23 62H43V63H23z"/>
        <path fill="#888" d="M30.794 41.495c-1.707.455-3.084.394-3.862-.18-2.013-1.463-.471-4.415.068-5.302-.98 1.08-1.96 2.159-2.724 3.334-1.198 1.84-1.711 3.859-.902 5.148 1.457 2.345 4.95 1.265 7.17.331l20.663-8.703-20.413 5.372z"/>
        <path fill="#FFF" stroke="#888" stroke-width="4" d="M92.72 5.286c.245-.072.518-.05.76.083.168.091.305.23.397.397h0l19.937 36.406c.132.242.154.515.083.76-.072.246-.238.465-.48.597h0l-40.354.123c-.276 0-.526-.112-.707-.293-.18-.18-.293-.43-.293-.707h0l20.06-36.886c.133-.243.35-.408.596-.48z"/>
        <path fill="#555" d="M93.213 35.122c.964.008 1.738.796 1.73 1.76-.009.964-.797 1.738-1.76 1.73-.964-.009-1.738-.797-1.73-1.76.008-.964.796-1.739 1.76-1.73zM93.356 20c1.233.01 2.366.98 2.318 2.194l-.012.153-1.254 10.459c-.084.621-.541 1.158-1.174 1.153-.6-.005-1.025-.463-1.134-1.047l-.019-.127-1.072-10.479-.009-.153c-.022-1.214 1.122-2.164 2.356-2.153z"/>
    </g>
</svg>
