<svg xmlns="http://www.w3.org/2000/svg" width="50" height="50" viewBox="0 0 50 50">
    <g fill="none" fill-rule="evenodd" stroke="#000">
        <path fill="#EEE" stroke-dasharray="1 3" stroke-linecap="round" stroke-width="1.5" d="M15 12h26c1.105 0 2 .895 2 2v26c0 1.105-.895 2-2 2H15c-1.105 0-2-.895-2-2V14c0-1.105.895-2 2-2z" transform="translate(4 4)"/>
        <path fill="#EEE" stroke-width="1.2" d="M17.625 30H1.2C.537 30 0 29.463 0 28.8V1.2C0 .537.537 0 1.2 0h27.6c.663 0 1.2.537 1.2 1.2v15.675" transform="translate(4 4)"/>
        <path stroke-width="1.5" d="M15 14.998L29.142 29.14M30 24L30 30 24 30" transform="translate(4 4)"/>
    </g>
</svg>
