<svg xmlns="http://www.w3.org/2000/svg" xmlns:xlink="http://www.w3.org/1999/xlink" width="160" height="160" viewBox="0 0 160 160">
    <defs>
        <filter id="a3h05d5bsa" width="106.7%" height="107.2%" x="-3.3%" y="-3.6%" filterUnits="objectBoundingBox">
            <feOffset dy="5" in="SourceAlpha" result="shadowOffsetOuter1"/>
            <feGaussianBlur in="shadowOffsetOuter1" result="shadowBlurOuter1" stdDeviation="2.5"/>
            <feColorMatrix in="shadowBlurOuter1" result="shadowMatrixOuter1" values="0 0 0 0 0 0 0 0 0 0 0 0 0 0 0 0 0 0 0.2 0"/>
            <feMerge>
                <feMergeNode in="shadowMatrixOuter1"/>
                <feMergeNode in="SourceGraphic"/>
            </feMerge>
        </filter>
        <rect id="rw3zmsvocb" width="14" height="3" x="0" y="7" rx="1.5"/>
    </defs>
    <g fill="none" fill-rule="evenodd" filter="url(#a3h05d5bsa)" transform="translate(-220 -140)">
        <g transform="translate(252 174)">
            <path stroke="#CCC" stroke-linecap="round" stroke-linejoin="round" stroke-width="7" d="M65 69L78 84"/>
            <path stroke="#CCC" stroke-linecap="round" stroke-linejoin="round" stroke-width="7" d="M18 69L31 84" transform="matrix(-1 0 0 1 49 0)"/>
            <g transform="translate(41 1)">
                <use fill="#CCC" transform="rotate(90 7 8.5)" xlink:href="#rw3zmsvocb"/>
                <rect width="14" height="5.5" fill="#AAA" rx="2.75"/>
            </g>
            <g transform="rotate(-45 20.485 5.657)">
                <rect width="3" height="15" x="8.5" y="6" fill="#CCC" rx="1.5"/>
                <rect width="5" height="7" x="7.5" fill="#CCC" rx="2.5"/>
                <path fill="#AAA" d="M.004 12.72C.152 7.327 4.57 3 10 3c5.523 0 10 4.477 10 10 0 .552-4.477 1-10 1s-10-.448-10-1z"/>
            </g>
            <g transform="scale(-1 1) rotate(-45 -27.51 121.529)">
                <rect width="3" height="15" x="8.5" y="6" fill="#CCC" rx="1.5"/>
                <rect width="5" height="7" x="7.5" fill="#CCC" rx="2.5"/>
                <path fill="#AAA" d="M.004 12.72C.152 7.327 4.57 3 10 3c5.523 0 10 4.477 10 10 0 .552-4.477 1-10 1s-10-.448-10-1z"/>
            </g>
            <circle cx="48" cy="48" r="36.5" fill="#F7F7F7" stroke="#AAA" stroke-width="5"/>
            <path fill="#FFF" d="M47.943 14.082c-18.746 0-33.943 15.222-33.943 34s15.197 34 33.943 34c12.322 0 23.11-6.577 29.057-16.417L47.943 48.082v-34z"/>
            <path stroke="#CCC" stroke-linecap="round" stroke-linejoin="round" stroke-width="1.5" d="M48.58 48.559L65.718 58.868"/>
            <rect width="3" height="16" x="46.5" y="31" fill="#888" rx="1.5"/>
            <circle cx="48" cy="48" r="2.75" fill="#888" stroke="#CCC" stroke-width="2.5" transform="matrix(-1 0 0 1 96 0)"/>
            <path fill="#CCC" d="M48 76c.828 0 1.5.672 1.5 1.5S48.828 79 48 79s-1.5-.672-1.5-1.5.672-1.5 1.5-1.5zm26.298-14.549c.717.414.963 1.332.549 2.049-.414.717-1.332.963-2.05.549-.717-.414-.963-1.332-.548-2.049.414-.717 1.331-.963 2.049-.549zM23.75 62c.415.717.169 1.635-.549 2.049-.717.414-1.635.168-2.049-.549-.414-.717-.168-1.635.55-2.049.717-.414 1.634-.168 2.048.549zm-.549-30.049c.718.414.964 1.332.55 2.049-.415.717-1.332.963-2.05.549-.717-.414-.963-1.332-.549-2.049.414-.717 1.332-.963 2.05-.549zm51.645.549c.414.717.168 1.635-.55 2.049-.717.414-1.634.168-2.048-.549-.415-.717-.169-1.635.549-2.049.717-.414 1.635-.168 2.049.549zM48 17c.828 0 1.5.672 1.5 1.5S48.828 20 48 20s-1.5-.672-1.5-1.5.672-1.5 1.5-1.5z"/>
        </g>
    </g>
</svg>
