<svg xmlns="http://www.w3.org/2000/svg" width="400" height="200" viewBox="0 0 400 200">
    <defs>
        <filter id="prefix__a" width="100%" height="100%" x="0%" y="0%" filterUnits="objectBoundingBox">
            <feGaussianBlur in="SourceGraphic"/>
        </filter>
    </defs>
    <g fill-rule="evenodd">
        <path fill-opacity=".05" d="M0 0H400V200H0z"/>
        <path d="M176.82 107.29c-.178-.141-.604-.567-.747-.747-.38-.477-.637-.941-.81-1.457-.529-1.586-.256-3.668.78-5.952.888-1.956 2.258-3.896 4.647-6.582.352-.396 1.4-1.552 1.407-1.552.002 0-.055.099-.127.22-.62 1.04-1.152 2.266-1.442 3.327-.465 1.703-.41 3.164.164 4.297.396.781 1.074 1.457 1.837 1.83 1.335.655 3.29.71 5.676.16.165-.039 8.308-2.2 18.097-4.805 9.79-2.604 17.8-4.733 17.8-4.732.004.003-22.742 9.735-34.55 14.785-1.87.8-2.37 1.001-3.248 1.31-2.247.789-4.26 1.166-5.888 1.1-1.463-.057-2.66-.458-3.596-1.201z" filter="url(#prefix__a)" opacity=".08"/>
    </g>
</svg>
