<svg xmlns="http://www.w3.org/2000/svg" xmlns:xlink="http://www.w3.org/1999/xlink" width="500" height="500" viewBox="0 0 500 500">
    <defs>
        <filter id="ltikkpspya" width="172%" height="172%" x="-36%" y="-36%" filterUnits="objectBoundingBox">
            <feGaussianBlur in="SourceGraphic" stdDeviation="50"/>
        </filter>
        <filter id="v3tb6hoi8b" width="400%" height="400%" x="-150%" y="-150%" filterUnits="objectBoundingBox">
            <feGaussianBlur in="SourceGraphic" stdDeviation="50"/>
        </filter>
        <filter id="mt59gyd6rc" width="120.9%" height="158.5%" x="-10.4%" y="-29.3%" filterUnits="objectBoundingBox">
            <feGaussianBlur in="SourceGraphic" stdDeviation="10"/>
        </filter>
        <path id="tdf6su54td" d="M28.992 95.79c-1.046-.834-3.538-3.339-4.374-4.395-2.222-2.806-3.733-5.538-4.741-8.567-3.101-9.328-1.505-21.568 4.565-35.001C29.64 36.327 37.658 24.92 51.65 9.123 53.709 6.798 59.847 0 59.886 0c.015 0-.319.582-.74 1.29-3.638 6.12-6.75 13.327-8.446 19.567-2.724 10.013-2.395 18.605.962 25.268 2.316 4.59 6.287 8.566 10.752 10.764 7.816 3.847 19.261 4.164 33.237.931.962-.224 48.643-12.935 105.958-28.248C258.924 14.258 305.826 1.738 305.834 1.748c.015.014-133.16 57.243-202.293 86.933-10.948 4.7-13.876 5.888-19.023 7.703-13.158 4.64-24.944 6.854-34.47 6.474-8.568-.341-15.576-2.695-21.056-7.068z"/>
    </defs>
    <g fill="none" fill-rule="evenodd">
        <path fill="#FFF" d="M208.333 416.667c115.06 0 208.334-93.274 208.334-208.334C416.667 93.274 323.393 0 208.333 0 93.274 0 0 93.274 0 208.333c0 115.06 93.274 208.334 208.333 208.334z" filter="url(#ltikkpspya)" opacity=".1" transform="translate(41.667 41.667)"/>
        <path fill="#FFF" d="M125 275c27.614 0 50-22.386 50-50s-22.386-50-50-50-50 22.386-50 50 22.386 50 50 50z" filter="url(#v3tb6hoi8b)" opacity=".15" transform="translate(41.667 41.667)"/>
        <g transform="translate(41.667 41.667) translate(55.833 145)">
            <path fill="#000" d="M31.714 126.625c-8.567-.34-15.575-2.685-21.055-7.04-1.046-.832-3.538-3.327-4.375-4.38-2.222-2.794-3.733-5.515-4.74-8.533C-1.558 97.38.039 85.188 6.109 71.807c5.197-11.455 13.216-22.817 27.206-38.553 2.061-2.316 8.199-9.087 8.238-9.087.014 0-.32.58-.74 1.285-3.638 6.095-6.75 13.275-8.446 19.49-2.725 9.975-2.396 18.533.961 25.17 2.317 4.573 6.287 8.533 10.753 10.722 7.816 3.832 19.26 4.148 33.236.928.963-.223 48.644-12.885 105.958-28.138C240.591 38.369 287.492 25.898 287.5 25.908c.016.014-133.16 57.02-202.292 86.595-10.949 4.682-13.877 5.865-19.024 7.673-13.157 4.622-24.943 6.827-34.47 6.449" filter="url(#mt59gyd6rc)" opacity=".3"/>
            <use fill="#FFF" xlink:href="#tdf6su54td"/>
        </g>
    </g>
</svg>
