<svg xmlns="http://www.w3.org/2000/svg" xmlns:xlink="http://www.w3.org/1999/xlink" width="800" height="800" viewBox="0 0 800 800">
    <defs>
        <filter id="prefix__a" width="137.5%" height="137.5%" x="-18.8%" y="-18.8%" filterUnits="objectBoundingBox">
            <feGaussianBlur in="SourceGraphic" stdDeviation="50"/>
        </filter>
        <filter id="prefix__b" width="150%" height="150%" x="-25%" y="-25%" filterUnits="objectBoundingBox">
            <feGaussianBlur in="SourceGraphic" stdDeviation="50"/>
        </filter>
        <filter id="prefix__c" width="350%" height="350%" x="-125%" y="-125%" filterUnits="objectBoundingBox">
            <feGaussianBlur in="SourceGraphic" stdDeviation="50"/>
        </filter>
        <filter id="prefix__d" width="117.4%" height="148.8%" x="-8.7%" y="-24.4%" filterUnits="objectBoundingBox">
            <feGaussianBlur in="SourceGraphic" stdDeviation="10"/>
        </filter>
        <path id="prefix__e" d="M34.79 114.948c-1.255-1.001-4.245-4.006-5.249-5.275-2.666-3.367-4.48-6.645-5.689-10.28-3.721-11.193-1.805-25.881 5.479-42.001 6.236-13.8 15.859-27.488 32.648-46.444C64.452 8.158 71.816 0 71.864 0c.017 0-.383.698-.89 1.548-4.364 7.344-8.1 15.993-10.134 23.48-3.27 12.016-2.874 22.326 1.154 30.322 2.78 5.508 7.545 10.279 12.903 12.917 9.38 4.616 23.113 4.997 39.884 1.117 1.155-.269 58.372-15.522 127.15-33.897C310.709 17.109 366.99 2.087 367 2.098c.018.016-159.792 68.691-242.752 104.32-13.138 5.64-16.652 7.065-22.828 9.243-15.79 5.568-29.932 8.225-41.365 7.77-10.28-.411-18.69-3.236-25.265-8.483z"/>
    </defs>
    <g fill="none" fill-rule="evenodd">
        <path fill="#FFF" d="M400 800c220.914 0 400-179.086 400-400S620.914 0 400 0 0 179.086 0 400s179.086 400 400 400z" filter="url(#prefix__a)" opacity=".02"/>
        <path fill="#FFF" d="M400 700c165.685 0 300-134.315 300-300S565.685 100 400 100 100 234.315 100 400s134.315 300 300 300z" filter="url(#prefix__b)" opacity=".1"/>
        <path fill="#FFF" d="M300 480c33.137 0 60-26.863 60-60s-26.863-60-60-60-60 26.863-60 60 26.863 60 60 60z" filter="url(#prefix__c)" opacity=".15"/>
        <g transform="translate(217 324)">
            <path fill="#000" d="M38.056 151.95c-10.28-.409-18.69-3.222-25.265-8.45-1.256-.996-4.246-3.99-5.25-5.253-2.666-3.354-4.48-6.62-5.689-10.24-3.721-11.15-1.805-25.781 5.479-41.838 6.236-13.747 15.859-27.381 32.647-46.264C42.452 37.125 49.816 29 49.864 29c.017 0-.384.696-.89 1.542-4.364 7.315-8.1 15.93-10.134 23.39-3.27 11.968-2.874 22.238 1.154 30.203 2.78 5.487 7.545 10.239 12.903 12.866 9.38 4.598 23.113 4.978 39.884 1.113 1.155-.267 58.372-15.462 127.15-33.765C288.708 46.043 344.99 31.078 345 31.089c.02.017-159.791 68.425-242.75 103.915-13.139 5.618-16.653 7.037-22.829 9.207-15.79 5.547-29.932 8.193-41.365 7.739" filter="url(#prefix__d)" opacity=".3"/>
            <use fill="#FFF" xlink:href="#prefix__e"/>
        </g>
    </g>
</svg>
