<svg xmlns="http://www.w3.org/2000/svg" width="370" height="390" viewBox="0 0 370 390">
    <defs>
        <filter id="l6zpl0su3a" width="128.3%" height="228%" x="-14.2%" y="-64%" filterUnits="objectBoundingBox">
            <feGaussianBlur in="SourceGraphic" stdDeviation="5"/>
        </filter>
        <filter id="8qxlo6a13b" width="128.3%" height="228%" x="-14.2%" y="-64%" filterUnits="objectBoundingBox">
            <feGaussianBlur in="SourceGraphic" stdDeviation="5"/>
        </filter>
        <filter id="s6huzrljrc" width="137%" height="207.1%" x="-18.5%" y="-53.6%" filterUnits="objectBoundingBox">
            <feGaussianBlur in="SourceGraphic" stdDeviation="5"/>
        </filter>
        <filter id="tgewgu7r8d" width="115.2%" height="113%" x="-7.6%" y="-6.5%" filterUnits="objectBoundingBox">
            <feGaussianBlur in="SourceGraphic" stdDeviation="6"/>
        </filter>
        <filter id="6mahk4z9we" width="100%" height="100%" x="0%" y="0%" filterUnits="objectBoundingBox">
            <feGaussianBlur in="SourceGraphic"/>
        </filter>
    </defs>
    <g fill="none" fill-rule="evenodd">
        <g fill="#000" opacity=".6">
            <path fill-rule="nonzero" stroke="#000" stroke-width="2" d="M74.507 144v-18.25h.071L79.301 144h4.044v-25h-3.507v14.964h-.071L75.937 119H71v25h3.507zm37.475 0v-25h-3.936v25h3.936zm28.638 0v-7.964l1.575-3.179L145.522 144h4.115l-4.759-15.821 4.688-9.179h-3.936l-5.01 10.536V119h-3.936v25h3.936zm43.38 0v-3.571h-6.799v-7.679h5.403v-3.571h-5.403v-6.608H184V119h-10.735v25H184z" filter="url(#l6zpl0su3a)" opacity=".5" transform="translate(53 64)"/>
            <path fill-rule="nonzero" stroke="#000" stroke-width="2" d="M76.798 184c1.933 0 3.406-.532 4.42-1.597 1.014-1.065 1.521-2.593 1.521-4.584 0-1.527-.31-2.858-.93-3.993-.62-1.134-1.754-2.395-3.4-3.784-1.289-1.088-2.178-2.014-2.667-2.778-.489-.764-.734-1.586-.734-2.465 0-1.551.657-2.327 1.969-2.327.644 0 1.133.191 1.467.573.334.382.501.99.501 1.823h0v1.25h3.722v-1.007c0-1.967-.483-3.478-1.449-4.531-.966-1.053-2.392-1.58-4.277-1.58-1.909 0-3.364.527-4.366 1.58-1.002 1.053-1.503 2.54-1.503 4.462 0 1.412.322 2.68.966 3.802.644 1.122 1.777 2.378 3.4 3.767 1.288 1.088 2.171 2.02 2.648 2.795.478.776.716 1.673.716 2.691 0 .857-.173 1.476-.519 1.858-.346.382-.853.573-1.52.573-1.36 0-2.04-.787-2.04-2.361h0V176.5H71v1.389c0 1.967.49 3.478 1.467 4.531.979 1.053 2.422 1.58 4.33 1.58zm24.063-.347v-9.896h1.86c1.957 0 3.424-.51 4.403-1.528.978-1.018 1.467-2.511 1.467-4.479h0v-2.396c0-1.967-.489-3.46-1.467-4.479-.979-1.019-2.446-1.528-4.402-1.528h0-5.798v24.306h3.937zm1.86-13.368h-1.86v-7.466h1.86c.645 0 1.128.174 1.45.521.322.347.483.938.483 1.771h0v2.882c0 .833-.16 1.424-.483 1.77-.322.348-.805.522-1.45.522h0zm21.307 13.368l.716-4.757h4.474v-.07l.716 4.827h3.937l-4.08-24.306h-5.333l-4.08 24.306h3.65zm4.725-8.056h-3.544l1.718-12.014H127l1.754 12.014zm24.42 8.403c1.885 0 3.323-.52 4.313-1.563.99-1.041 1.485-2.511 1.485-4.41h0v-3.437h-3.722v3.716c0 1.481-.656 2.222-1.968 2.222-1.313 0-1.969-.741-1.969-2.222h0v-13.577c0-1.504.656-2.257 1.969-2.257 1.312 0 1.968.753 1.968 2.257h0v2.813h3.722v-2.57c0-1.898-.495-3.368-1.485-4.41-.99-1.041-2.428-1.562-4.313-1.562-1.885 0-3.322.52-4.313 1.563-.99 1.041-1.485 2.511-1.485 4.41h0v13.055c0 1.898.495 3.368 1.485 4.41.99 1.041 2.428 1.562 4.313 1.562zm30.827-.347v-3.472h-6.8v-7.466h5.404v-3.472H177.2v-6.424h6.8v-3.472h-10.737v24.306H184z" filter="url(#8qxlo6a13b)" opacity=".5" transform="translate(53 64)"/>
            <path d="M97.935 93.989c-2.414-.093-4.388-.734-5.932-1.924-.295-.227-.997-.908-1.232-1.196-.626-.763-1.052-1.507-1.336-2.33-.874-2.54-.424-5.87 1.286-9.525 1.464-3.13 3.724-6.233 7.665-10.532.58-.632 2.31-2.482 2.321-2.482.004 0-.09.158-.209.351-1.024 1.665-1.901 3.626-2.379 5.324-.768 2.725-.675 5.063.27 6.876.654 1.25 1.772 2.33 3.03 2.929 2.202 1.047 5.427 1.133 9.364.253.271-.06 13.705-3.52 29.853-7.686 16.148-4.167 29.362-7.574 29.364-7.571.004.003-37.516 15.576-56.994 23.655-3.084 1.279-3.91 1.602-5.36 2.096-3.706 1.263-7.027 1.865-9.711 1.762" filter="url(#s6huzrljrc)" opacity=".5" transform="translate(53 64)"/>
            <path fill-rule="nonzero" d="M237 60.396L118.5 0 0 60.396v155.208L118.5 276 237 215.604V60.396zM118.5 6.72L231 64.058V211.94L118.5 269.28 6 211.942V64.057L118.5 6.72z" filter="url(#tgewgu7r8d)" opacity=".8" transform="translate(53 64)"/>
        </g>
        <g fill="#FFF">
            <g>
                <g fill-rule="nonzero" stroke="#FFF">
                    <path d="M3.513 25V6.75h.071L8.316 25h4.05V0H8.853v14.964h-.071L4.946 0H0v25h3.513zm37.142 0V0h-3.943v25h3.943zm28.289 0v-7.964l1.577-3.179L73.854 25h4.122L73.21 9.179 77.905 0h-3.943l-5.018 10.536V0H65v25h3.943zM112 25v-3.571h-6.81V13.75h5.412v-3.571h-5.412V3.57H112V0h-10.753v25H112zM5.798 65c1.933 0 3.406-.532 4.42-1.597 1.014-1.065 1.521-2.593 1.521-4.584 0-1.527-.31-2.858-.93-3.993-.62-1.134-1.754-2.395-3.4-3.784-1.289-1.088-2.178-2.014-2.667-2.778-.489-.764-.734-1.586-.734-2.465 0-1.551.657-2.327 1.969-2.327.644 0 1.133.191 1.467.573.334.382.501.99.501 1.823h0v1.25h3.722v-1.007c0-1.967-.483-3.478-1.449-4.531C9.252 40.527 7.826 40 5.941 40c-1.909 0-3.364.527-4.366 1.58C.573 42.633.072 44.12.072 46.042c0 1.412.322 2.68.966 3.802.644 1.122 1.777 2.378 3.4 3.767 1.288 1.088 2.171 2.02 2.648 2.795.478.776.716 1.673.716 2.691 0 .857-.173 1.476-.519 1.858-.346.382-.853.573-1.52.573-1.36 0-2.04-.787-2.04-2.361h0V57.5H0v1.389c0 1.967.49 3.478 1.467 4.531C2.446 64.473 3.89 65 5.797 65zm24.063-.347v-9.896h1.86c1.957 0 3.424-.51 4.403-1.528.978-1.018 1.467-2.511 1.467-4.479h0v-2.396c0-1.967-.489-3.46-1.467-4.479-.979-1.019-2.446-1.528-4.402-1.528h0-5.798v24.306h3.937zm1.86-13.368h-1.86v-7.466h1.86c.645 0 1.128.174 1.45.521.322.347.483.938.483 1.771h0v2.882c0 .833-.16 1.424-.483 1.77-.322.348-.805.522-1.45.522h0zm21.307 13.368l.716-4.757h4.474v-.07l.716 4.827h3.937l-4.08-24.306h-5.333l-4.08 24.306h3.65zm4.725-8.056h-3.544l1.718-12.014H56l1.754 12.014zM82.173 65c1.885 0 3.323-.52 4.313-1.563.99-1.041 1.485-2.511 1.485-4.41h0V55.59H84.25v3.716c0 1.481-.656 2.222-1.968 2.222-1.313 0-1.969-.741-1.969-2.222h0V45.729c0-1.504.656-2.257 1.969-2.257 1.312 0 1.968.753 1.968 2.257h0v2.813h3.722v-2.57c0-1.898-.495-3.368-1.485-4.41-.99-1.041-2.428-1.562-4.313-1.562-1.885 0-3.322.52-4.313 1.563-.99 1.041-1.485 2.511-1.485 4.41h0v13.055c0 1.898.495 3.368 1.485 4.41.99 1.041 2.428 1.562 4.313 1.562zM113 64.653V61.18h-6.8v-7.466h5.404v-3.472H106.2V43.82h6.8v-3.472h-10.737v24.306H113z" transform="translate(68 49) translate(60 75) translate(0 52)"/>
                </g>
                <g>
                    <path d="M9.435 27.989c-2.414-.093-4.388-.734-5.932-1.924-.295-.227-.997-.908-1.232-1.196-.626-.763-1.052-1.507-1.336-2.33-.874-2.54-.424-5.87 1.286-9.525 1.464-3.13 3.724-6.233 7.665-10.532C10.466 1.85 12.196 0 12.207 0c.004 0-.09.158-.209.351-1.024 1.665-1.901 3.626-2.379 5.324-.768 2.725-.675 5.063.27 6.876.654 1.25 1.772 2.33 3.03 2.929 2.202 1.047 5.427 1.133 9.364.253.271-.06 13.705-3.52 29.853-7.686C68.284 3.88 81.498.473 81.5.476c.004.003-37.516 15.576-56.994 23.655-3.084 1.279-3.91 1.602-5.36 2.096-3.706 1.263-7.027 1.865-9.711 1.762" filter="url(#6mahk4z9we)" transform="translate(68 49) translate(60 75) translate(17.5)"/>
                </g>
            </g>
            <path fill-rule="nonzero" d="M235 59.939L117.5 0 0 59.939V214.06L117.5 274 235 214.061V59.94zM117.5 4.483L231 62.382v149.235l-113.5 57.899L4 211.617V62.382L117.5 4.483z" transform="translate(68 49)"/>
        </g>
    </g>
</svg>
