<svg xmlns="http://www.w3.org/2000/svg" width="36" height="36" viewBox="0 0 36 36">
    <path fill-rule="evenodd" d="M13 22c.552 0 1 .448 1 1v2c0 .552-.448 1-1 1h-2c-.552 0-1-.448-1-1v-2c0-.552.448-1 1-1h2zm12 0c.552 0 1 .448 1 1v2c0 .552-.448 1-1 1h-8c-.552 0-1-.448-1-1v-2c0-.552.448-1 1-1h8zm-12-6c.552 0 1 .448 1 1v2c0 .552-.448 1-1 1h-2c-.552 0-1-.448-1-1v-2c0-.552.448-1 1-1h2zm12 0c.552 0 1 .448 1 1v2c0 .552-.448 1-1 1h-8c-.552 0-1-.448-1-1v-2c0-.552.448-1 1-1h8zm-12-6c.552 0 1 .448 1 1v2c0 .552-.448 1-1 1h-2c-.552 0-1-.448-1-1v-2c0-.552.448-1 1-1h2zm12 0c.552 0 1 .448 1 1v2c0 .552-.448 1-1 1h-8c-.552 0-1-.448-1-1v-2c0-.552.448-1 1-1h8z"/>
</svg>
