<?xml version="1.0" encoding="UTF-8"?>
<svg width="120px" height="120px" viewBox="0 0 120 120" version="1.1" xmlns="http://www.w3.org/2000/svg">
    <title>E10CB071-D979-4420-948E-78BD24A3B98C</title>
    <g id="0717" stroke="none" stroke-width="1" fill="none" fill-rule="evenodd">
        <g id="NIKE_M_MY_01_001_최근본폴더_02최근본폴더없음" transform="translate(-120.000000, -300.000000)">
            <g id="LIST" transform="translate(0.000000, 129.000000)">
                <g id="icon" transform="translate(107.000000, 171.000000)">
                    <g id="06.일러스트/최근본폴더" transform="translate(13.000000, 0.000000)">
                        <g id="Group" transform="translate(29.000000, 31.000000)">
                            <path d="M2,11 L60.5,11 C61.6045695,11 62.5,11.8954305 62.5,13 L62.5,61 L62.5,61 L0,61 L0,13 C-1.3527075e-16,11.8954305 0.8954305,11 2,11 Z" id="Rectangle" fill="#888888"></path>
                            <g id="Group-3" transform="translate(9.000000, 0.000000)" stroke-linecap="round" stroke-linejoin="round">
                                <path d="M1,0 L43,0 C43.5522847,-1.01453063e-16 44,0.44771525 44,1 L44,59 C44,59.5522847 43.5522847,60 43,60 L1,60 C0.44771525,60 6.76353751e-17,59.5522847 0,59 L0,1 C-6.76353751e-17,0.44771525 0.44771525,1.01453063e-16 1,0 Z" id="Rectangle" stroke="#CCCCCC" fill="#FCFCFC" stroke-dasharray="1,2"></path>
                                <line x1="6.41666667" y1="12" x2="37.5833333" y2="12" id="Path-22" stroke="#DDDDDD"></line>
                                <line x1="6.41666667" y1="8" x2="37.5833333" y2="8" id="Path-22" stroke="#DDDDDD"></line>
                                <line x1="6.41666667" y1="16" x2="37.5833333" y2="16" id="Path-22" stroke="#DDDDDD"></line>
                                <line x1="6.41666667" y1="20" x2="24.75" y2="20" id="Path-22" stroke="#DDDDDD"></line>
                            </g>
                            <path d="M11.9228445,22.3636364 L36.8821023,22.3636364 L36.8821023,22.3636364 L43.3766234,26.5405405 L71.3813069,26.5405405 C71.9335917,26.5405405 72.3813069,26.9882558 72.3813069,27.5405405 C72.3813069,27.6383268 72.3669641,27.7355844 72.3387364,27.8292078 L62.3376623,61 L62.3376623,61 L0,61 L9.99145641,23.8442715 C10.2263513,22.970756 11.0182978,22.3636364 11.9228445,22.3636364 Z" id="Rectangle" fill="#DDDDDD"></path>
                            <path d="M36.5495609,42.6253424 C35.3825827,42.9472134 34.438358,42.9138265 33.9015584,42.5257032 C32.5133916,41.5345281 33.5520387,39.5015757 33.9161652,38.8906989 C33.2510345,39.6361669 32.5853822,40.3821566 32.0694494,41.1923118 C31.2592942,42.4599726 30.9196863,43.8470961 31.4820478,44.7261119 C32.4946114,46.3245122 34.8817784,45.5633941 36.3982763,44.9102618 L50.5089582,38.8213166 L36.5495609,42.6253424 Z" id="Fill-34" fill="#888888" transform="translate(40.856621, 42.248550) rotate(0.500000) translate(-40.856621, -42.248550) "></path>
                        </g>
                        <g id="Group-2" transform="translate(84.000000, 78.000000)">
                            <circle id="Oval" stroke="#888888" stroke-width="3" fill="#FFFFFF" cx="8" cy="8" r="8"></circle>
                            <polygon id="Rectangle" fill="#888888" transform="translate(8.500000, 8.000000) rotate(45.000000) translate(-8.500000, -8.000000) " points="7 0 10 0 10 16 7 16"></polygon>
                        </g>
                    </g>
                </g>
            </g>
        </g>
    </g>
</svg>