<svg xmlns="http://www.w3.org/2000/svg" width="32" height="32" viewBox="0 0 32 32">
    <g fill="none" fill-rule="evenodd" stroke="#888" stroke-width="1.5">
        <path d="M11.995 12.833L9.078 9.917 11.995 7" transform="translate(7 8.5) rotate(90 10.537 9.917)"/>
        <path d="M10.5 8.966L10.5 17.451M7 15.076H.75c-.138 0-.25-.112-.25-.25V.25C.5.112.612 0 .75 0H8.6c.085 0 .164.043.21.115l1.737 2.7h6.703c.138 0 .25.112.25.25v11.761c0 .138-.112.25-.25.25H14h0" transform="translate(7 8.5)"/>
    </g>
</svg>
