<?xml version="1.0" encoding="UTF-8"?>
<svg width="40px" height="40px" viewBox="0 0 40 40" version="1.1" xmlns="http://www.w3.org/2000/svg" xmlns:xlink="http://www.w3.org/1999/xlink">
    <title>00.아이콘/play</title>
    <g id="00.아이콘/play" stroke="none" stroke-width="1" fill="none" fill-rule="evenodd">
        <g id="Group" fill="#FFFFFF">
            <path d="M22.4516583,16.5839448 L27.0620939,24.0759026 C27.3515449,24.5462605 27.2048909,25.1622073 26.734533,25.4516583 C26.5769253,25.5486477 26.3954954,25.6 26.2104356,25.6 L16.9895644,25.6 C16.4372797,25.6 15.9895644,25.1522847 15.9895644,24.6 C15.9895644,24.4149402 16.0409168,24.2335103 16.1379061,24.0759026 L20.7483417,16.5839448 C21.0377927,16.1135869 21.6537395,15.9669329 22.1240974,16.2563839 C22.2574179,16.3384272 22.369615,16.4506243 22.4516583,16.5839448 Z" id="Triangle" transform="translate(21.600000, 20.400000) rotate(-270.000000) translate(-21.600000, -20.400000) "></path>
            <path d="M20,0 C31.045695,0 40,8.954305 40,20 C40,31.045695 31.045695,40 20,40 C8.954305,40 0,31.045695 0,20 C0,8.954305 8.954305,0 20,0 Z M20,1.6 C9.8379606,1.6 1.6,9.8379606 1.6,20 C1.6,30.1620394 9.8379606,38.4 20,38.4 C30.1620394,38.4 38.4,30.1620394 38.4,20 C38.4,9.8379606 30.1620394,1.6 20,1.6 Z" id="icon_play" fill-rule="nonzero"></path>
        </g>
    </g>
</svg>