<?xml version="1.0" encoding="UTF-8"?>
<svg width="120px" height="120px" viewBox="0 0 120 120" version="1.1" xmlns="http://www.w3.org/2000/svg" xmlns:xlink="http://www.w3.org/1999/xlink">
    <title>993F0010-BEE3-40A1-8468-A68B41C199EF</title>
    <g id="0717" stroke="none" stroke-width="1" fill="none" fill-rule="evenodd">
        <g id="NIKE_M_TOOLKIT_02_001_03검색_결과없음" transform="translate(-120.000000, -292.000000)">
            <g id="icon" transform="translate(119.000000, 292.000000)">
                <g id="06.일러스트/결과없음" transform="translate(1.000000, 0.000000)">
                    <g id="Group" transform="translate(28.000000, 24.000000)">
                        <g id="Group-4">
                            <path d="M1,6 L47,6 C47.5522847,6 48,6.44771525 48,7 L48,72 C48,72.5522847 47.5522847,73 47,73 L1,73 C0.44771525,73 6.76353751e-17,72.5522847 0,72 L0,7 C-6.76353751e-17,6.44771525 0.44771525,6 1,6 Z" id="Rectangle" fill="#AAAAAA"></path>
                            <rect id="Rectangle" fill="#CCCCCC" x="6" y="0" width="48" height="67" rx="1"></rect>
                            <path d="M4,3 L42.5723093,3 C42.8454692,3 43.1067394,3.11174285 43.2954198,3.30926761 L50.7231105,11.0851313 C50.9008298,11.2711812 51,11.5185725 51,11.7758637 L51,69 C51,69.5522847 50.5522847,70 50,70 L4,70 C3.44771525,70 3,69.5522847 3,69 L3,4 C3,3.44771525 3.44771525,3 4,3 Z" id="Rectangle" fill="#F7F7F7"></path>
                            <g id="Group-3" transform="translate(8.655172, 14.678161)">
                                <g id="Group-5" transform="translate(0.000000, 12.068966)" fill="#BBBBBB">
                                    <rect id="Rectangle" x="8.52651283e-14" y="-5.95079541e-14" width="35.4022989" height="1"></rect>
                                    <rect id="Rectangle" x="-4.40536496e-13" y="3.2183908" width="24.137931" height="1"></rect>
                                    <rect id="Rectangle" x="-2.89546165e-13" y="6.43678161" width="16.091954" height="1"></rect>
                                    <rect id="Rectangle" x="2.85105273e-13" y="9.65517241" width="14.4827586" height="1"></rect>
                                </g>
                                <path d="M5.50844122,4.15214036 C4.48150033,4.43538691 3.65058259,4.40600639 3.17819896,4.06445788 C1.95661215,3.19222378 2.87062167,1.40322574 3.19105294,0.865654088 C2.60573795,1.52166595 2.01996389,2.17813687 1.56594309,2.89107348 C0.853006479,4.00661499 0.554151533,5.22728366 1.04902962,6.00081758 C1.94008561,7.40740984 4.04079258,6.73762586 5.37531075,6.1628695 L17.7927108,0.804597701 L5.50844122,4.15214036 Z" id="Fill-34" fill="#888888" transform="translate(9.298654, 3.820563) rotate(0.500000) translate(-9.298654, -3.820563) "></path>
                            </g>
                            <path d="M43,3 L51,11 L44,11 C43.4477153,11 43,10.5522847 43,10 L43,3 L43,3 Z" id="Rectangle" fill="#AAAAAA"></path>
                        </g>
                        <g id="Group-2" transform="translate(34.379310, 34.574713)">
                            <circle id="Oval-Copy-2" stroke="#888888" stroke-width="3" fill="#FFFFFF" transform="translate(17.847291, 17.847291) rotate(0.500000) translate(-17.847291, -17.847291) " cx="17.8472906" cy="17.8472906" r="15.3472906"></circle>
                            <path d="M17.7806322,22.1670207 C18.5559778,22.173787 19.1790344,22.807814 19.1722681,23.5831596 C19.1655018,24.3585052 18.5314748,24.9815619 17.7561291,24.9747955 C16.9807835,24.9680292 16.3577269,24.3340022 16.3644932,23.5586566 C16.3712596,22.7833109 17.0052866,22.1602543 17.7806322,22.1670207 Z M17.8955894,10.0000729 C18.8823929,10.0086846 19.7888161,10.7802534 19.7614568,11.7486395 L19.7511039,11.8882582 L18.7416697,20.303415 C18.6743588,20.8039626 18.3066578,21.235615 17.7975771,21.2311723 C17.3204413,21.2270084 16.9800678,20.8670845 16.8876847,20.4046715 L16.8698198,20.2870797 L16.0074041,11.8555874 L16.0000395,11.7158141 C15.9930688,10.7471284 16.9087859,9.99146117 17.8955894,10.0000729 Z" id="Combined-Shape" fill="#555555"></path>
                            <line x1="27.7243051" y1="29.7701149" x2="34.7953729" y2="36.8411828" id="Path-21" stroke="#888888" stroke-width="3" stroke-linecap="round"></line>
                        </g>
                    </g>
                </g>
            </g>
        </g>
    </g>
</svg>