<svg xmlns="http://www.w3.org/2000/svg" width="40" height="40" viewBox="0 0 40 40">
    <g fill="none" fill-rule="evenodd">
        <g>
            <g>
                <g>
                    <g>
                        <path fill="#FFF" d="M21.6 15.2L28 25.6 15.2 25.6z" transform="translate(-160 -249) translate(20 130) translate(140 119) rotate(90 21.6 20.4)"/>
                        <path stroke="#FFF" stroke-width="1.6" d="M20 .8c5.302 0 10.102 2.149 13.576 5.624C37.051 9.898 39.2 14.698 39.2 20c0 5.302-2.149 10.102-5.624 13.576C30.102 37.051 25.302 39.2 20 39.2c-5.302 0-10.102-2.149-13.576-5.624C2.949 30.102.8 25.302.8 20c0-5.302 2.149-10.102 5.624-13.576C9.898 2.949 14.698.8 20 .8zm-4.33 11.874v14.652L27.393 20 15.67 12.674z" transform="translate(-160 -249) translate(20 130) translate(140 119)"/>
                    </g>
                </g>
            </g>
        </g>
    </g>
</svg>
