<?xml version="1.0" encoding="UTF-8"?>
<svg width="50px" height="50px" viewBox="0 0 50 50" version="1.1" xmlns="http://www.w3.org/2000/svg" xmlns:xlink="http://www.w3.org/1999/xlink">
    <title>00.아이콘/play</title>
    <g id="00.아이콘/play" stroke="none" stroke-width="1" fill="none" fill-rule="evenodd">
        <g id="Group" fill="#FFFFFF">
            <path d="M27.8516583,20.3839448 L34.0620939,30.4759026 C34.3515449,30.9462605 34.2048909,31.5622073 33.734533,31.8516583 C33.5769253,31.9486477 33.3954954,32 33.2104356,32 L20.7895644,32 C20.2372797,32 19.7895644,31.5522847 19.7895644,31 C19.7895644,30.8149402 19.8409168,30.6335103 19.9379061,30.4759026 L26.1483417,20.3839448 C26.4377927,19.9135869 27.0537395,19.7669329 27.5240974,20.0563839 C27.6574179,20.1384272 27.769615,20.2506243 27.8516583,20.3839448 Z" id="Triangle" transform="translate(27.000000, 25.500000) rotate(-270.000000) translate(-27.000000, -25.500000) "></path>
            <path d="M25,0 C38.8071187,0 50,11.1928813 50,25 C50,38.8071187 38.8071187,50 25,50 C11.1928813,50 0,38.8071187 0,25 C0,11.1928813 11.1928813,0 25,0 Z M25,2 C12.2974508,2 2,12.2974508 2,25 C2,37.7025492 12.2974508,48 25,48 C37.7025492,48 48,37.7025492 48,25 C48,12.2974508 37.7025492,2 25,2 Z" id="Oval" fill-rule="nonzero"></path>
        </g>
    </g>
</svg>