<?xml version="1.0" encoding="UTF-8"?>
<svg width="120px" height="120px" viewBox="0 0 120 120" version="1.1" xmlns="http://www.w3.org/2000/svg" xmlns:xlink="http://www.w3.org/1999/xlink">
    <title>9D92E6F4-B2D2-4218-9468-BE15AA7301D5</title>
    <g id="0717" stroke="none" stroke-width="1" fill="none" fill-rule="evenodd">
        <g id="NIKE_M_MY_01_001_내가업로드한폴더_06업로드파일없음" transform="translate(-120.000000, -300.000000)">
            <g id="LIST" transform="translate(0.000000, 129.000000)">
                <g id="icon" transform="translate(107.000000, 171.000000)">
                    <g id="06.일러스트/폴더업로드" transform="translate(13.000000, 0.000000)">
                        <g id="Group" transform="translate(29.000000, 42.000000)">
                            <path d="M2,0 L60.5,0 C61.6045695,-4.1271253e-15 62.5,0.8954305 62.5,2 L62.5,50 L62.5,50 L0,50 L0,2 C-1.3527075e-16,0.8954305 0.8954305,2.02906125e-16 2,0 Z" id="Rectangle" fill="#888888"></path>
                            <path d="M11.9228445,11.3636364 L36.8821023,11.3636364 L36.8821023,11.3636364 L43.3766234,15.5405405 L71.3813069,15.5405405 C71.9335917,15.5405405 72.3813069,15.9882558 72.3813069,16.5405405 C72.3813069,16.6383268 72.3669641,16.7355844 72.3387364,16.8292078 L62.3376623,50 L62.3376623,50 L0,50 L9.99145641,12.8442715 C10.2263513,11.970756 11.0182978,11.3636364 11.9228445,11.3636364 Z" id="Rectangle" fill="#DDDDDD"></path>
                            <path d="M36.5495609,31.6253424 C35.3825827,31.9472134 34.438358,31.9138265 33.9015584,31.5257032 C32.5133916,30.5345281 33.5520387,28.5015757 33.9161652,27.8906989 C33.2510345,28.6361669 32.5853822,29.3821566 32.0694494,30.1923118 C31.2592942,31.4599726 30.9196863,32.8470961 31.4820478,33.7261119 C32.4946114,35.3245122 34.8817784,34.5633941 36.3982763,33.9102618 L50.5089582,27.8213166 L36.5495609,31.6253424 Z" id="Fill-34" fill="#888888" transform="translate(40.856621, 31.248550) rotate(0.500000) translate(-40.856621, -31.248550) "></path>
                        </g>
                        <g id="Group-2" transform="translate(84.000000, 78.000000)">
                            <circle id="Oval" stroke="#888888" stroke-width="3" fill="#FFFFFF" cx="8" cy="8" r="8"></circle>
                            <polygon id="Rectangle" fill="#888888" transform="translate(8.500000, 8.000000) rotate(45.000000) translate(-8.500000, -8.000000) " points="7 0 10 0 10 16 7 16"></polygon>
                        </g>
                    </g>
                </g>
            </g>
        </g>
    </g>
</svg>