<?xml version="1.0" encoding="UTF-8"?>
<svg width="36px" height="36px" viewBox="0 0 36 36" version="1.1" xmlns="http://www.w3.org/2000/svg" xmlns:xlink="http://www.w3.org/1999/xlink">
    <title>00.아이콘/00.공통/삭제(Outline)</title>
    <g id="00.아이콘/00.공통/삭제(Outline)" stroke="none" stroke-width="1" fill="none" fill-rule="evenodd">
        <g id="icon" transform="translate(11.000000, 10.000000)" fill="#888888" fill-rule="nonzero">
            <polygon id="Path" points="2.5 4 2.5 14.5 11.5 14.5 11.5 4 12.5 4 12.5 15.5 1.5 15.5 1.5 4"></polygon>
            <polygon id="Rectangle" points="14 2 14 3 0 3 0 2"></polygon>
            <path d="M6,6 L6,12 L5,12 L5,6 L6,6 Z M9,6 L9,12 L8,12 L8,6 L9,6 Z" id="Combined-Shape"></path>
            <path d="M10,0 L10,3 L4,3 L4,0 L10,0 Z M9,1 L5,1 L5,2 L9,2 L9,1 Z" id="Rectangle"></path>
        </g>
    </g>
</svg>