<?xml version="1.0" encoding="UTF-8"?>
<svg width="160px" height="160px" viewBox="0 0 160 160" version="1.1" xmlns="http://www.w3.org/2000/svg" xmlns:xlink="http://www.w3.org/1999/xlink">
    <title>7C79190C-F9AF-4CFA-A00C-8501390DA05F</title>
    <g id="0717" stroke="none" stroke-width="1" fill="none" fill-rule="evenodd">
        <g id="NIKE_M_ERROR_01_페이지오류" transform="translate(-100.000000, -141.000000)">
            <g id="Contents" transform="translate(50.000000, 141.000000)">
                <g id="06.일러스트/페이지없음" transform="translate(50.000000, 0.000000)">
                    <g id="Group" transform="translate(25.000000, 34.000000)">
                        <rect id="Rectangle" stroke="#BBBBBB" stroke-width="4" fill="#F7F7F7" x="12" y="17" width="86" height="66" rx="4"></rect>
                        <path d="M0,82 C-6.76353751e-17,81.4477153 0.44771525,81 1,81 L109,81 C109.552285,81 110,81.4477153 110,82 L110,84.3333333 L100,86 L10,86 L0,84.3333333 L0,82 Z" id="Combined-Shape" fill="#AAAAAA"></path>
                        <path d="M70,81 C70,81.8284271 69.3284271,82.5 68.5,82.5 L41.5,82.5 C40.6715729,82.5 40,81.8284271 40,81" id="Path" fill="#FFFFFF" opacity="0.5"></path>
                        <rect id="Rectangle" fill="#BBBBBB" x="23" y="52" width="40" height="1"></rect>
                        <rect id="Rectangle" fill="#BBBBBB" x="23" y="56" width="40" height="1"></rect>
                        <rect id="Rectangle" fill="#BBBBBB" x="23" y="60" width="20" height="1"></rect>
                        <path d="M30.798238,39.5497029 C29.0957303,40.0192815 27.7181985,39.9705732 26.9350602,39.4043391 C24.90986,37.9583112 26.4251451,34.9924318 26.9563701,34.101222 C25.9860092,35.1887872 25.0148873,36.2771134 24.2621918,37.459051 C23.0802542,39.3084446 22.5847994,41.3321226 23.4052299,42.6145211 C24.8824616,44.9464314 28.3651057,43.8360341 30.5775284,42.8831778 L51.1636386,34 L30.798238,39.5497029 Z" id="Fill-34" fill="#888888" transform="translate(37.081819, 39.000000) rotate(0.500000) translate(-37.081819, -39.000000) "></path>
                        <g id="Group-2" transform="translate(69.541673, 0.000000)">
                            <circle id="Oval-Copy-2" stroke="#888888" stroke-width="4" fill="#FFFFFF" transform="translate(21.938776, 21.938776) rotate(0.500000) translate(-21.938776, -21.938776) " cx="21.9387755" cy="21.9387755" r="18.9387755"></circle>
                            <path d="M21.8880191,27.7548806 C22.851663,27.7632902 23.6260333,28.5512952 23.6176237,29.514939 C23.6092141,30.4785828 22.8212091,31.2529532 21.8575653,31.2445436 C20.8939215,31.236134 20.1195511,30.448129 20.1279607,29.4844852 C20.1363703,28.5208413 20.9243753,27.746471 21.8880191,27.7548806 Z M22.0308945,12.6331026 C23.2643586,12.6438669 24.3967765,13.6137459 24.3492043,14.8269775 L24.337034,14.9798472 L23.0824515,25.438685 C22.9990783,26.0604599 22.5419909,26.5972781 21.9090792,26.5917548 C21.3094786,26.5865221 20.8836521,26.1292503 20.7745,25.5453285 L20.7560094,25.4183825 L19.6841499,14.9392421 L19.6752579,14.7861886 C19.6533291,13.5723504 20.7974304,12.6223383 22.0308945,12.6331026 Z" id="Combined-Shape" fill="#555555"></path>
                            <line x1="34.4573506" y1="37" x2="47.1852727" y2="49.7279221" id="Path-21" stroke="#888888" stroke-width="4" stroke-linecap="round"></line>
                        </g>
                    </g>
                </g>
            </g>
        </g>
    </g>
</svg>