<svg xmlns="http://www.w3.org/2000/svg" width="65" height="65" viewBox="0 0 65 65">
    <defs>
        <filter id="6rgcqmqdta" width="100%" height="100%" x="0%" y="0%" filterUnits="objectBoundingBox">
            <feGaussianBlur in="SourceGraphic"/>
        </filter>
    </defs>
    <g fill="none" fill-rule="evenodd">
        <g>
            <g>
                <g>
                    <path fill="#F7F7F7" d="M0 0H65V65H0z" transform="translate(-100 -484) translate(20 144) translate(80 340)"/>
                    <path fill="#000" d="M21.89 35.962c-.088-.069-.296-.277-.365-.365-.186-.233-.312-.46-.396-.712-.259-.775-.126-1.793.381-2.91.434-.955 1.103-1.904 2.271-3.217.172-.193.684-.758.688-.758l-.062.107c-.304.509-.564 1.108-.705 1.627-.228.832-.2 1.546.08 2.1.194.382.525.712.898.895.652.32 1.608.346 2.774.077.08-.018 4.061-1.075 8.846-2.348 4.784-1.273 8.7-2.313 8.7-2.313.001.001-11.116 4.759-16.887 7.227-.914.39-1.158.489-1.588.64-1.098.386-2.082.57-2.878.538-.715-.028-1.3-.224-1.757-.588z" filter="url(#6rgcqmqdta)" opacity=".08" transform="translate(-100 -484) translate(20 144) translate(80 340)"/>
                </g>
            </g>
        </g>
    </g>
</svg>
