<?xml version="1.0" encoding="UTF-8"?>
<svg width="207px" height="157px" viewBox="0 0 207 157" version="1.1" xmlns="http://www.w3.org/2000/svg" xmlns:xlink="http://www.w3.org/1999/xlink">
    <!-- Generator: Sketch 62 (91390) - https://sketch.com -->
    <title>07.이미지/logo-watermark(패턴)</title>
    <desc>Created with Sketch.</desc>
    <defs>
        <filter x="0.0%" y="0.0%" width="100.0%" height="100.0%" filterUnits="objectBoundingBox" id="filter-1">
            <feGaussianBlur stdDeviation="0" in="SourceGraphic"></feGaussianBlur>
        </filter>
    </defs>
    <g id="07.이미지/logo-watermark(패턴)" stroke="none" stroke-width="1" fill="none" fill-rule="evenodd" opacity="0.35">
        <g id="Group-4-Copy-4" transform="translate(103.000000, 75.614067) rotate(-20.000000) translate(-103.000000, -75.614067) translate(15.000000, 47.114067)" fill="#000000">
            <path d="M64.931514,38.7083333 L64.931514,23.8041667 L64.9913409,23.8041667 L68.9399108,38.7083333 L72.320126,38.7083333 L72.320126,18.2916667 L69.3886119,18.2916667 L69.3886119,30.5125 L69.3287851,30.5125 L66.1280504,18.2916667 L62,18.2916667 L62,38.7083333 L64.931514,38.7083333 Z M79.5591708,38.7083333 L79.5591708,18.2916667 L76.2686959,18.2916667 L76.2686959,38.7083333 L79.5591708,38.7083333 Z M86.7982157,38.7083333 L86.7982157,32.2041667 L88.1144057,29.6083333 L90.8963527,38.7083333 L94.3363946,38.7083333 L90.3579113,25.7875 L94.2765678,18.2916667 L90.9860929,18.2916667 L86.7982157,26.8958333 L86.7982157,18.2916667 L83.5077408,18.2916667 L83.5077408,38.7083333 L86.7982157,38.7083333 Z M106.361585,38.7083333 L106.361585,35.7916667 L100.678037,35.7916667 L100.678037,29.5208333 L105.194962,29.5208333 L105.194962,26.6041667 L100.678037,26.6041667 L100.678037,21.2083333 L106.361585,21.2083333 L106.361585,18.2916667 L97.3875623,18.2916667 L97.3875623,38.7083333 L106.361585,38.7083333 Z M120.301233,39 C121.916557,39 123.147993,38.5527778 123.995539,37.6583333 C124.843086,36.7638889 125.266859,35.4805556 125.266859,33.8083333 C125.266859,32.525 125.00761,31.4069444 124.48911,30.4541667 C123.970611,29.5013889 123.023353,28.4416667 121.647337,27.275 C120.570454,26.3611111 119.827604,25.5833333 119.418788,24.9416667 C119.009971,24.3 118.805563,23.6097222 118.805563,22.8708333 C118.805563,21.5680556 119.353975,20.9166667 120.4508,20.9166667 C120.989242,20.9166667 121.398058,21.0770833 121.67725,21.3979167 C121.956442,21.71875 122.096038,22.2291667 122.096038,22.9291667 L122.096038,22.9291667 L122.096038,23.9791667 L125.207032,23.9791667 L125.207032,23.1333333 C125.207032,21.4805556 124.803201,20.2118056 123.995539,19.3270833 C123.187877,18.4423611 121.996326,18 120.420887,18 C118.825505,18 117.609027,18.4423611 116.771451,19.3270833 C115.933876,20.2118056 115.515088,21.4611111 115.515088,23.075 C115.515088,24.2611111 115.784309,25.3256944 116.32275,26.26875 C116.861191,27.2118056 117.808449,28.2666667 119.164524,29.4333333 C120.241406,30.3472222 120.979271,31.1298611 121.378116,31.78125 C121.776961,32.4326389 121.976384,33.1861111 121.976384,34.0416667 C121.976384,34.7611111 121.831803,35.28125 121.54264,35.6020833 C121.253477,35.9229167 120.829703,36.0833333 120.27132,36.0833333 C119.13461,36.0833333 118.566256,35.4222222 118.566256,34.1 L118.566256,34.1 L118.566256,32.7 L115.455261,32.7 L115.455261,33.8666667 C115.455261,35.5194444 115.864078,36.7881944 116.681711,37.6729167 C117.499344,38.5576389 118.705851,39 120.301233,39 Z M131.937549,38.7083333 L131.937549,30.3958333 L133.493046,30.3958333 C135.128313,30.3958333 136.354763,29.9680556 137.172396,29.1125 C137.990029,28.2569444 138.398845,27.0027778 138.398845,25.35 L138.398845,25.35 L138.398845,23.3375 C138.398845,21.6847222 137.990029,20.4305556 137.172396,19.575 C136.354763,18.7194444 135.128313,18.2916667 133.493046,18.2916667 L133.493046,18.2916667 L128.647074,18.2916667 L128.647074,38.7083333 L131.937549,38.7083333 Z M133.493046,27.4791667 L131.937549,27.4791667 L131.937549,21.2083333 L133.493046,21.2083333 C134.031488,21.2083333 134.435319,21.3541667 134.704539,21.6458333 C134.97376,21.9375 135.108371,22.4333333 135.108371,23.1333333 L135.108371,23.1333333 L135.108371,25.5541667 C135.108371,26.2541667 134.97376,26.75 134.704539,27.0416667 C134.435319,27.3333333 134.031488,27.4791667 133.493046,27.4791667 L133.493046,27.4791667 Z M142.82603,38.7083333 L143.424298,34.7125 L147.163474,34.7125 L147.163474,34.6541667 L147.761742,38.7083333 L151.052217,38.7083333 L147.642089,18.2916667 L143.184991,18.2916667 L139.774862,38.7083333 L142.82603,38.7083333 Z M146.7746,31.9416667 L143.813172,31.9416667 L145.249016,21.85 L145.308843,21.85 L146.7746,31.9416667 Z M158.71005,39 C160.285489,39 161.487011,38.5625 162.314616,37.6875 C163.14222,36.8125 163.556022,35.5777778 163.556022,33.9833333 L163.556022,33.9833333 L163.556022,31.0958333 L160.445028,31.0958333 L160.445028,34.2166667 C160.445028,35.4611111 159.896615,36.0833333 158.79979,36.0833333 C157.702965,36.0833333 157.154553,35.4611111 157.154553,34.2166667 L157.154553,34.2166667 L157.154553,22.8125 C157.154553,21.5486111 157.702965,20.9166667 158.79979,20.9166667 C159.896615,20.9166667 160.445028,21.5486111 160.445028,22.8125 L160.445028,22.8125 L160.445028,25.175 L163.556022,25.175 L163.556022,23.0166667 C163.556022,21.4222222 163.14222,20.1875 162.314616,19.3125 C161.487011,18.4375 160.285489,18 158.71005,18 C157.13461,18 155.933088,18.4375 155.105484,19.3125 C154.27788,20.1875 153.864078,21.4222222 153.864078,23.0166667 L153.864078,23.0166667 L153.864078,33.9833333 C153.864078,35.5777778 154.27788,36.8125 155.105484,37.6875 C155.933088,38.5625 157.13461,39 158.71005,39 Z M176,38.7083333 L176,35.7916667 L170.316452,35.7916667 L170.316452,29.5208333 L174.833377,29.5208333 L174.833377,26.6041667 L170.316452,26.6041667 L170.316452,21.2083333 L176,21.2083333 L176,18.2916667 L167.025977,18.2916667 L167.025977,38.7083333 L176,38.7083333 Z" id="NIKESPACE" fill-rule="nonzero"></path>
            <path d="M25,1.10134124e-13 L50,14.25 L50,42.75 L25,57 L-2.16715534e-13,42.75 L-2.16715534e-13,14.25 L25,1.10134124e-13 Z M25,2.84901316 L2.49873284,15.6740132 L2.49873284,41.325 L25,54.15 L47.5002676,41.325 L47.5002676,15.6740132 L25,2.84901316 Z" id="Polygon-Copy-3" fill-rule="nonzero"></path>
            <path d="M14.3092581,34.9959383 C13.4153378,34.9627108 12.6840489,34.7339579 12.1122336,34.3090152 C12.0030494,34.2279401 11.743076,33.9845671 11.6557602,33.8818573 C11.423892,33.6091703 11.2662342,33.3437195 11.1610764,33.0493239 C10.8374714,32.142804 11.0040502,30.9533335 11.6374445,29.6478621 C12.1797335,28.5302368 13.016496,27.4217676 14.4763896,25.8865834 C14.691442,25.6606365 15.3318626,25 15.3359678,25 C15.3374678,25 15.3026521,25.0565606 15.2586784,25.1253784 C14.8790998,25.7200767 14.5543106,26.4205124 14.3773897,27.0269511 C14.0931004,28 14.1274425,28.8349699 14.4777317,29.4825368 C14.7194683,29.9285975 15.1337838,30.3149225 15.5997308,30.5285384 C16.4153354,30.9023846 17.6095713,30.9332493 19.0678859,30.6190649 C19.1683069,30.5972824 24.143724,29.3619579 30.1243771,27.873883 C36.1051092,26.3855866 40.9992105,25.1689434 41,25.1699033 C41.0016579,25.1712324 27.1051163,30.7328506 19.8912274,33.6181786 C18.7487809,34.0749459 18.4432548,34.1903561 17.9061763,34.3667572 C16.5332037,34.8176912 15.3033626,35.0328577 14.3092581,34.9959383" id="Fill-1-Copy-10" filter="url(#filter-1)"></path>
        </g>
    </g>
</svg>
