<?xml version="1.0" encoding="UTF-8"?>
<svg width="85px" height="60px" viewBox="0 0 85 60" version="1.1" xmlns="http://www.w3.org/2000/svg" xmlns:xlink="http://www.w3.org/1999/xlink">
    <!-- Generator: Sketch 62 (91390) - https://sketch.com -->
    <title>10.이미지/logo-watermark</title>
    <desc>Created with Sketch.</desc>
    <defs>
        <filter x="0.0%" y="0.0%" width="100.0%" height="100.0%" filterUnits="objectBoundingBox" id="filter-1">
            <feGaussianBlur stdDeviation="0" in="SourceGraphic"></feGaussianBlur>
        </filter>
    </defs>
    <g id="10.이미지/logo-watermark" stroke="none" stroke-width="1" fill="none" fill-rule="evenodd" opacity="0.35">
        <g id="Watermark" transform="translate(0.000000, 1.000000)" fill="#000000">
            <g id="Group" transform="translate(42.342828, 26.045772) rotate(-20.000000) translate(-42.342828, -26.045772) translate(2.342828, 13.045772)">
                <g id="Group-4-Copy-9" transform="translate(0.000000, -0.000000)">
                    <path d="M29.2243243,17.4680556 L29.2243243,10.7256944 L29.2513514,10.7256944 L31.0351351,17.4680556 L32.5621622,17.4680556 L32.5621622,8.23194444 L31.2378378,8.23194444 L31.2378378,13.7604167 L31.2108108,13.7604167 L29.7648649,8.23194444 L27.9,8.23194444 L27.9,17.4680556 L29.2243243,17.4680556 Z M35.8324324,17.4680556 L35.8324324,8.23194444 L34.3459459,8.23194444 L34.3459459,17.4680556 L35.8324324,17.4680556 Z M39.1027027,17.4680556 L39.1027027,14.5256944 L39.6972973,13.3513889 L40.9540541,17.4680556 L42.5081081,17.4680556 L40.7108108,11.6229167 L42.4810811,8.23194444 L40.9945946,8.23194444 L39.1027027,12.1243056 L39.1027027,8.23194444 L37.6162162,8.23194444 L37.6162162,17.4680556 L39.1027027,17.4680556 Z M47.9405405,17.4680556 L47.9405405,16.1486111 L45.372973,16.1486111 L45.372973,13.3118056 L47.4135135,13.3118056 L47.4135135,11.9923611 L45.372973,11.9923611 L45.372973,9.55138889 L47.9405405,9.55138889 L47.9405405,8.23194444 L43.8864865,8.23194444 L43.8864865,17.4680556 L47.9405405,17.4680556 Z M54.2378378,17.6 C54.9675676,17.6 55.5238739,17.3976852 55.9067568,16.9930556 C56.2896396,16.5884259 56.4810811,16.0078704 56.4810811,15.2513889 C56.4810811,14.6708333 56.363964,14.1650463 56.1297297,13.7340278 C55.8954955,13.3030093 55.4675676,12.8236111 54.8459459,12.2958333 C54.3594595,11.8824074 54.0238739,11.5305556 53.8391892,11.2402778 C53.6545045,10.95 53.5621622,10.6377315 53.5621622,10.3034722 C53.5621622,9.71412037 53.8099099,9.41944444 54.3054054,9.41944444 C54.5486486,9.41944444 54.7333333,9.49201389 54.8594595,9.63715278 C54.9855856,9.78229167 55.0486486,10.0131944 55.0486486,10.3298611 L55.0486486,10.3298611 L55.0486486,10.8048611 L56.4540541,10.8048611 L56.4540541,10.4222222 C56.4540541,9.67453704 56.2716216,9.1005787 55.9067568,8.70034722 C55.5418919,8.30011574 55.0036036,8.1 54.2918919,8.1 C53.5711712,8.1 53.0216216,8.30011574 52.6432432,8.70034722 C52.2648649,9.1005787 52.0756757,9.66574074 52.0756757,10.3958333 C52.0756757,10.9324074 52.1972973,11.4140046 52.4405405,11.840625 C52.6837838,12.2672454 53.1117117,12.7444444 53.7243243,13.2722222 C54.2108108,13.6856481 54.5441441,14.0396991 54.7243243,14.334375 C54.9045045,14.6290509 54.9945946,14.9699074 54.9945946,15.3569444 C54.9945946,15.6824074 54.9292793,15.9177083 54.7986486,16.0628472 C54.668018,16.2079861 54.4765766,16.2805556 54.2243243,16.2805556 C53.7108108,16.2805556 53.4540541,15.9814815 53.4540541,15.3833333 L53.4540541,15.3833333 L53.4540541,14.75 L52.0486486,14.75 L52.0486486,15.2777778 C52.0486486,16.025463 52.2333333,16.5994213 52.6027027,16.9996528 C52.9720721,17.3998843 53.5171171,17.6 54.2378378,17.6 Z M59.4945946,17.4680556 L59.4945946,13.7076389 L60.1972973,13.7076389 C60.936036,13.7076389 61.4900901,13.5141204 61.8594595,13.1270833 C62.2288288,12.7400463 62.4135135,12.1726852 62.4135135,11.425 L62.4135135,11.425 L62.4135135,10.5145833 C62.4135135,9.76689815 62.2288288,9.19953704 61.8594595,8.8125 C61.4900901,8.42546296 60.936036,8.23194444 60.1972973,8.23194444 L60.1972973,8.23194444 L58.0081081,8.23194444 L58.0081081,17.4680556 L59.4945946,17.4680556 Z M60.1972973,12.3881944 L59.4945946,12.3881944 L59.4945946,9.55138889 L60.1972973,9.55138889 C60.4405405,9.55138889 60.622973,9.61736111 60.7445946,9.74930556 C60.8662162,9.88125 60.927027,10.1055556 60.927027,10.4222222 L60.927027,10.4222222 L60.927027,11.5173611 C60.927027,11.8340278 60.8662162,12.0583333 60.7445946,12.1902778 C60.622973,12.3222222 60.4405405,12.3881944 60.1972973,12.3881944 L60.1972973,12.3881944 Z M64.4135135,17.4680556 L64.6837838,15.6604167 L66.372973,15.6604167 L66.372973,15.6340278 L66.6432432,17.4680556 L68.1297297,17.4680556 L66.5891892,8.23194444 L64.5756757,8.23194444 L63.0351351,17.4680556 L64.4135135,17.4680556 Z M66.1972973,14.4069444 L64.8594595,14.4069444 L65.5081081,9.84166667 L65.5351351,9.84166667 L66.1972973,14.4069444 Z M71.5891892,17.6 C72.3009009,17.6 72.8436937,17.4020833 73.2175676,17.00625 C73.5914414,16.6104167 73.7783784,16.0518519 73.7783784,15.3305556 L73.7783784,15.3305556 L73.7783784,14.0243056 L72.372973,14.0243056 L72.372973,15.4361111 C72.372973,15.9990741 72.1252252,16.2805556 71.6297297,16.2805556 C71.1342342,16.2805556 70.8864865,15.9990741 70.8864865,15.4361111 L70.8864865,15.4361111 L70.8864865,10.2770833 C70.8864865,9.70532407 71.1342342,9.41944444 71.6297297,9.41944444 C72.1252252,9.41944444 72.372973,9.70532407 72.372973,10.2770833 L72.372973,10.2770833 L72.372973,11.3458333 L73.7783784,11.3458333 L73.7783784,10.3694444 C73.7783784,9.64814815 73.5914414,9.08958333 73.2175676,8.69375 C72.8436937,8.29791667 72.3009009,8.1 71.5891892,8.1 C70.8774775,8.1 70.3346847,8.29791667 69.9608108,8.69375 C69.5869369,9.08958333 69.4,9.64814815 69.4,10.3694444 L69.4,10.3694444 L69.4,15.3305556 C69.4,16.0518519 69.5869369,16.6104167 69.9608108,17.00625 C70.3346847,17.4020833 70.8774775,17.6 71.5891892,17.6 Z M79.4,17.4680556 L79.4,16.1486111 L76.8324324,16.1486111 L76.8324324,13.3118056 L78.872973,13.3118056 L78.872973,11.9923611 L76.8324324,11.9923611 L76.8324324,9.55138889 L79.4,9.55138889 L79.4,8.23194444 L75.3459459,8.23194444 L75.3459459,17.4680556 L79.4,17.4680556 Z" id="NIKESPACE" fill-rule="nonzero"></path>
                    <path d="M11.25,4.95603558e-14 L22.5,6.375 L22.5,19.125 L11.25,25.5 L-9.75219905e-14,19.125 L-9.75219905e-14,6.375 L11.25,4.95603558e-14 Z M11.25,1.27455852 L1.12442978,7.01205852 L1.12442978,18.4875 L11.25,24.225 L21.3751204,18.4875 L21.3751204,7.01205852 L11.25,1.27455852 Z" id="Polygon-Copy-3" fill-rule="nonzero"></path>
                    <path d="M6.43916616,15.7481722 C6.03690201,15.7332198 5.70782201,15.6302811 5.45050511,15.4390568 C5.40137225,15.402573 5.28438419,15.2930552 5.24509211,15.2468358 C5.14075141,15.1241266 5.06980541,15.0046738 5.02248439,14.8721958 C4.87686214,14.4642618 4.95182261,13.9290001 5.23685001,13.3415379 C5.48088008,12.8386066 5.8574232,12.3397954 6.51437531,11.6489625 C6.61114892,11.5472864 6.89933816,11.25 6.90118553,11.25 C6.90186053,11.25 6.88619343,11.2754523 6.86640529,11.3064203 C6.6955949,11.5740345 6.54943976,11.8892306 6.46982535,12.162128 C6.34189518,12.5999999 6.35734912,12.9757364 6.51497926,13.2671416 C6.62376075,13.4678689 6.81020271,13.6417151 7.01987885,13.7378423 C7.38690093,13.9060731 7.92430708,13.9199622 8.58054866,13.7785792 C8.6257381,13.7687771 10.8646758,13.2128811 13.5559697,12.5432474 C16.2472991,11.873514 18.4496447,11.3260245 18.45,11.3264565 C18.4507461,11.3270546 12.1973024,13.8297828 8.95105231,15.1281804 C8.43695141,15.3337257 8.29946468,15.3856602 8.05777934,15.4650407 C7.43994168,15.667961 6.88651317,15.764786 6.43916616,15.7481722" id="Fill-1-Copy-10" filter="url(#filter-1)"></path>
                </g>
            </g>
        </g>
    </g>
</svg>