<?xml version="1.0" encoding="UTF-8"?>
<svg width="20px" height="20px" viewBox="0 0 20 20" version="1.1" xmlns="http://www.w3.org/2000/svg" xmlns:xlink="http://www.w3.org/1999/xlink">
    <title>DD296854-D262-4BD6-9EA8-372FCE8C251C</title>
    <g id="0717" stroke="none" stroke-width="1" fill="none" fill-rule="evenodd">
        <g id="NIKE_M_INFO_01_001_AGENCYCONTACT_목록--" transform="translate(-40.000000, -291.000000)" stroke="#888888" stroke-width="1.2">
            <g id="02.모듈/에이전시" transform="translate(20.000000, 135.000000)">
                <g id="00.아이콘/전화" transform="translate(20.000000, 156.000000)">
                    <path d="M7.22298404,3.90019135 C7.49232064,3.89543355 7.74711251,3.97960979 7.954706,4.12939243 C8.15647222,4.27497059 8.31369529,4.48253206 8.39612251,4.7304202 L8.39612251,4.7304202 L9.10411103,6.85500061 C9.17702279,7.07312828 9.18517523,7.30249912 9.13440012,7.51802995 C9.0836532,7.73344118 8.97404953,7.93504945 8.81130349,8.09779548 C9.05602948,10.2343225 9.69074377,10.862315 10.7792278,11.6067645 C12.064767,11.026134 12.266111,10.9165863 12.4812743,10.8656875 C12.6965571,10.8147604 12.9256827,10.8225745 13.1446226,10.895149 L13.1446226,10.895149 L15.2692115,11.6037549 C15.5174679,11.6863047 15.7250294,11.8435278 15.8706076,12.045294 C16.0163695,12.2473149 16.1,12.4940343 16.1,12.7553582 L16.1,12.7553582 L16.1,14.9412684 C16.1,15.2915098 15.9616767,15.5758042 15.7652875,15.773943 C15.5290908,16.0122438 15.2047649,16.1267777 14.8893261,16.094806 C11.9905563,15.8077383 9.38788021,14.5113699 7.43825516,12.5617448 C5.48863011,10.6121198 4.1922617,8.00944372 3.90533146,5.11204552 C3.86505411,4.7146423 4.055518,4.30541349 4.43157117,4.07313965 L4.43157117,4.07313965 Z" id="Path"></path>
                </g>
            </g>
        </g>
    </g>
</svg>