<svg xmlns="http://www.w3.org/2000/svg" width="150" height="54" viewBox="0 0 150 54">
    <defs>
        <filter id="prefix__a" width="100%" height="100%" x="0%" y="0%" filterUnits="objectBoundingBox">
            <feGaussianBlur in="SourceGraphic"/>
        </filter>
    </defs>
    <path fill-rule="evenodd" d="M17.75 52.479c-4.39-.175-7.98-1.376-10.789-3.607-.536-.425-1.812-1.703-2.241-2.242-1.139-1.432-1.913-2.825-2.43-4.371-1.588-4.76-.77-11.004 2.34-17.858 2.663-5.867 6.772-11.687 13.94-19.746C19.626 3.468 22.77 0 22.79 0c.008 0-.163.297-.379.658-1.863 3.122-3.458 6.8-4.327 9.983-1.396 5.109-1.227 9.493.493 12.892 1.187 2.342 3.221 4.37 5.509 5.492 4.005 1.963 9.869 2.125 17.03.475.493-.114 24.923-6.6 54.29-14.412C124.773 7.274 148.805.887 148.81.892c.008.007-68.228 29.205-103.65 44.353-5.61 2.398-7.11 3.004-9.748 3.93-6.741 2.368-12.78 3.498-17.662 3.304" filter="url(#prefix__a)"/>
</svg>
